<svg xmlns="http://www.w3.org/2000/svg" width="23.089" height="14.69" viewBox="0 0 23.089 14.69">
  <path id="_360_view_icon" data-name="360 view icon" d="M11.995,28.89l-1.241-1.241,2.309-2.338a16.69,16.69,0,0,1-6.494-1.9Q4,21.935,4,19.684,4,17.4,7.362,15.8a18.916,18.916,0,0,1,8.182-1.6,18.894,18.894,0,0,1,8.2,1.6q3.348,1.6,3.348,3.882a3.679,3.679,0,0,1-1.847,3,14.168,14.168,0,0,1-4.906,2.02V22.83A11.5,11.5,0,0,0,24,21.329q1.356-.924,1.356-1.645,0-.924-2.41-2.338t-7.4-1.414q-4.964,0-7.389,1.414T5.732,19.684a2.666,2.666,0,0,0,1.66,2.237,20.6,20.6,0,0,0,5.758,1.717l-2.4-2.338,1.241-1.241,4.416,4.387Z" transform="translate(-4 -14.2)" fill="#7f7d7d"/>
</svg>
