<svg xmlns="http://www.w3.org/2000/svg" width="13.694" height="10.271" viewBox="0 0 13.694 10.271">
  <path id="Icon_metro-video-camera" data-name="Icon metro-video-camera" d="M7.706,7.924a2.14,2.14,0,1,1,2.14,2.14,2.14,2.14,0,0,1-2.14-2.14Zm-5.135,0a2.14,2.14,0,1,1,2.14,2.14A2.14,2.14,0,0,1,2.571,7.924ZM12.842,12.2V10.92a.858.858,0,0,0-.856-.856H3.427a.858.858,0,0,0-.856.856V15.2a.858.858,0,0,0,.856.856h8.559a.858.858,0,0,0,.856-.856V13.915l3.424,2.14V10.064Zm-1.712,2.14H4.283V11.775H11.13Z" transform="translate(-2.571 -5.784)" fill="#7f7d7d"/>
</svg>
