<svg xmlns="http://www.w3.org/2000/svg" width="85" height="67" viewBox="0 0 85 67">
  <g id="Oval" transform="translate(29.9 13.85)">
    <g id="Rectangle_137" data-name="Rectangle 137" transform="translate(-29.9 -13.85)" fill="#fff" stroke="#707070" stroke-width="0.5">
      <rect width="85" height="67" stroke="none"/>
      <rect x="0.25" y="0.25" width="84.5" height="66.5" fill="none"/>
    </g>
    <g id="Group_19" data-name="Group 19" transform="translate(0.1 0.15)">
      <path id="Path_221" data-name="Path 221" d="M12.229.21l-2.9,5.382h-5.5l-.269,8.97L.15,19.226,3.559,24.4V32.86H9l3.2,6.1,3.438-6.1,5.322.06V24.279l3.379-4.874L21.08,14.711l-.419-9.119H15.189Z" transform="translate(-0.001 -0.031)" fill="none" stroke="#000102" stroke-width="0.5"/>
      <path id="Path_222" data-name="Path 222" d="M2.59.68,4.474,4.657l2.93,2.6,2.93-2.6L12.367.68" transform="translate(4.855 0.905)" fill="none" stroke="#000102" stroke-width="0.5"/>
      <path id="Path_223" data-name="Path 223" d="M10.7,4.16,8.3,6.851,6.57,11.665l1.615,4.754L10.7,19.17" transform="translate(12.775 7.83)" fill="none" stroke="#000102" stroke-width="0.5"/>
      <path id="Path_224" data-name="Path 224" d="M12.517,17.028l-1.674-4.485L7.464,10.42,4.2,12.543,2.56,17.028" transform="translate(4.795 20.287)" fill="none" stroke="#000102" stroke-width="0.5"/>
      <path id="Path_225" data-name="Path 225" d="M.44,19.209l2.541-2.631,1.644-5.262L2.981,6.741.44,4.14" transform="translate(0.577 7.79)" fill="none" stroke="#000102" stroke-width="0.5"/>
      <path id="Path_226" data-name="Path 226" d="M5.966,2.01,1.84,15.554l3.8,13.724" transform="translate(3.363 3.551)" fill="none" stroke="#000102" stroke-width="0.5"/>
      <path id="Path_227" data-name="Path 227" d="M5.18,2.01,9.336,15.943,5.628,29.278" transform="translate(10.009 3.551)" fill="none" stroke="#000102" stroke-width="0.5"/>
      <path id="Path_228" data-name="Path 228" d="M1.29,9.249l8.7-6.369L18.811,9.4" transform="translate(2.268 5.283)" fill="none" stroke="#000102" stroke-width="0.5"/>
      <path id="Path_229" data-name="Path 229" d="M1.29,8.38l8.7,6.339,8.7-6.458" transform="translate(2.268 15.988)" fill="none" stroke="#000102" stroke-width="0.5"/>
      <path id="Path_230" data-name="Path 230" d="M24.588,19.7c0,10.644-5.472,19.554-12.259,19.554S.1,30.348.1,19.7,5.572.15,12.359.15,24.618,9.06,24.618,19.7Z" transform="translate(-0.1 -0.15)" fill="none" stroke="#000102" stroke-width="0.5"/>
    </g>
  </g>
</svg>
