<svg xmlns="http://www.w3.org/2000/svg" width="85" height="70" viewBox="0 0 85 70">
  <g id="Pear" transform="translate(29.948 14.899)">
    <g id="Rectangle_143" data-name="Rectangle 143" transform="translate(-29.948 -14.899)" fill="#fff" stroke="#707070" stroke-width="0.5">
      <rect width="85" height="70" stroke="none"/>
      <rect x="0.25" y="0.25" width="84.5" height="69.5" fill="none"/>
    </g>
    <g id="Group_20" data-name="Group 20" transform="translate(0.052 0.1)">
      <path id="Path_231" data-name="Path 231" d="M1.261,8.438,1.14,8.166l6.587-2.78L5.189,1.851l.272-.181L8.24,5.507Z" transform="translate(2.147 3.073)" fill="none" stroke="#000" stroke-width="0.3"/>
      <path id="Path_232" data-name="Path 232" d="M3.593,14.263.27,11.7l.181-.242L3.231,13.6,2.747,3.9h.3Z" transform="translate(0.389 7.581)" fill="none" stroke="#000" stroke-width="0.3"/>
      <path id="Path_233" data-name="Path 233" d="M13.1,40.072h-.393C6.391,39.8,2.1,36.3.62,30.223-1.857,19.98,4.065,5.176,12.585.311L12.947.1l-.121.393c-1.3,4.049-3.565,12.116-4.472,16.1h0v.06c-.03.06-6.979,8.641-7.825,9.638l3.293,4.472,1.662-4.653.151.453A63.614,63.614,0,0,0,9.775,36.628c.211.211,3.112,3.142,3.112,3.142l.272.3ZM.409,26.748a20.646,20.646,0,0,0,.514,3.414c1,4.109,3.777,9.094,11.36,9.578-2.206-2.206-2.719-2.749-2.84-2.9h0a61.642,61.642,0,0,1-4.018-9.7L3.883,31.492ZM12.4.795C5.243,5.146.046,16.506.378,25.963c5.892-7.312,7.312-9.034,7.674-9.427h0C8.929,12.669,11.1,4.964,12.4.795Z" transform="translate(-0.052 -0.1)" fill="none" stroke="#000" stroke-width="0.3"/>
      <path id="Path_234" data-name="Path 234" d="M8.255,18.619l-.3-.091.6-2.508,2.9-1.813-4.8-1.9L2.967,10.673l-2.3,1.42L.49,11.821,2.937,10.31,6.8,12.032l5.348,2.115L8.859,16.232Z" transform="translate(0.834 20.538)" fill="none" stroke="#000" stroke-width="0.3"/>
      <path id="Path_235" data-name="Path 235" d="M7.172,16.171,1.854,16.05l-.6-5.65.332-.03.574,5.378,5.015.091Z" transform="translate(2.37 20.659)" fill="none" stroke="#000" stroke-width="0.3"/>
      <path id="Path_236" data-name="Path 236" d="M3.012,21.622,1.26,16.033l.3-.091,1.42,4.532,2.629-9.547V10.9l4.411-5.348L7.635,3.1l.211-.242,2.629,2.659L5.883,11.078Z" transform="translate(2.39 5.479)" fill="none" stroke="#000" stroke-width="0.3"/>
      <path id="Path_237" data-name="Path 237" d="M11.415,18.781l.363-10.242L4.98,5.487,7.76,1.65l.272.211-2.538,3.5L12.11,8.327l-.363,9.759,2.78-2.145.181.272Z" transform="translate(9.909 3.033)" fill="none" stroke="#000" stroke-width="0.3"/>
      <path id="Path_238" data-name="Path 238" d="M4.08,39.911l.3-.3,3.142-3.142a64.806,64.806,0,0,0,4.139-10.061l.151-.453L13.476,30.6l3.233-4.381C15.893,25.2,9,16.525,8.944,16.5h0v-.06C8.038,12.447,5.863,4.41,4.594.452h-.06L4.594.18h.242V.24c8.46,4.925,14.291,19.7,11.783,29.881-1.057,4.29-4.018,9.457-12.085,9.789H4.11Zm3.686-3.233c-.121.151-.634.665-2.87,2.9,7.553-.483,10.363-5.408,11.36-9.517a17.886,17.886,0,0,0,.514-3.414L13.325,31.33l-1.541-4.351a61.642,61.642,0,0,1-4.018,9.7h0Zm1.42-20.3c.363.423,1.752,2.145,7.644,9.547C17.193,16.5,12.056,5.075,4.956.694,6.225,4.772,8.34,12.477,9.216,16.374h0Z" transform="translate(8.09 0.062)" fill="none" stroke="#000" stroke-width="0.3"/>
      <path id="Path_239" data-name="Path 239" d="M8.018,18.619l-.574-2.387L4.12,14.147,9.5,12l3.837-1.692,2.447,1.511-.181.272-2.3-1.42L9.619,12.3l-4.8,1.9,2.9,1.813.6,2.508Z" transform="translate(8.171 20.538)" fill="none" stroke="#000" stroke-width="0.3"/>
      <path id="Path_240" data-name="Path 240" d="M5.26,16.171v-.332l5.015-.06.574-5.408.332.03-.6,5.68Z" transform="translate(10.475 20.659)" fill="none" stroke="#000" stroke-width="0.3"/>
      <path id="Path_241" data-name="Path 241" d="M11.623,21.622,8.752,11.078,4.16,5.519,6.789,2.86,7,3.1,4.613,5.549l4.441,5.408,2.6,9.517,1.42-4.532.3.091Z" transform="translate(8.252 5.479)" fill="none" stroke="#000" stroke-width="0.3"/>
    </g>
  </g>
</svg>
