<svg xmlns="http://www.w3.org/2000/svg" width="35.72" height="22.51" viewBox="0 0 35.72 22.51">
  <g id="pin-svgrepo-com" transform="translate(0 -14.496)">
    <path id="Path_314" data-name="Path 314" d="M146.915,31.135a10.563,10.563,0,0,0-9.042-5.042h-.318a.889.889,0,0,0,0,1.777h.318a8.853,8.853,0,0,1,7.918,12.812,9.087,9.087,0,0,1-7.918,4.961,8.845,8.845,0,0,1-8.236-4.961.889.889,0,0,0-1.59.795c2.587,5.176,7.933,5.75,9.826,5.75a10.047,10.047,0,0,0,6.557-2.105,10.735,10.735,0,0,0,2.951-3.645A10.562,10.562,0,0,0,146.915,31.135Z" transform="translate(-112.793 -10.223)" fill="#7f7d7d"/>
    <path id="Path_315" data-name="Path 315" d="M191.509,81.891a3.18,3.18,0,0,1-1.285-.268.889.889,0,1,0-.714,1.628,4.981,4.981,0,1,0,2-9.545.889.889,0,0,0,0,1.777,3.2,3.2,0,0,1,0,6.408Z" transform="translate(-166.588 -52.195)" fill="#7f7d7d"/>
    <path id="Path_316" data-name="Path 316" d="M24.907,27.165a1.836,1.836,0,0,0-.5-2.039l-2.366-2.109v-5.03a3.494,3.494,0,0,0-3.49-3.49H3.49A3.494,3.494,0,0,0,0,17.986v6.879a3.494,3.494,0,0,0,3.49,3.49H23.179A1.836,1.836,0,0,0,24.907,27.165Zm-23.13-2.3V17.986A1.715,1.715,0,0,1,3.49,16.273H18.554a1.715,1.715,0,0,1,1.713,1.713v5.428a.889.889,0,0,0,.3.663l2.663,2.374a.072.072,0,0,1-.048.126H3.49A1.715,1.715,0,0,1,1.777,24.865Z" fill="#7f7d7d"/>
    <path id="Path_317" data-name="Path 317" d="M47.41,48.488H35.425a.889.889,0,0,0,0,1.777H47.41a.889.889,0,1,0,0-1.777Z" transform="translate(-30.444 -29.965)" fill="#7f7d7d"/>
    <path id="Path_318" data-name="Path 318" d="M42.148,82.48H35.425a.889.889,0,1,0,0,1.777h6.723a.889.889,0,0,0,0-1.777Z" transform="translate(-30.444 -59.929)" fill="#7f7d7d"/>
  </g>
</svg>
