<?xml version="1.0" encoding="UTF-8"?>
<svg xmlns="http://www.w3.org/2000/svg" xmlns:xlink="http://www.w3.org/1999/xlink" width="10px" height="10px" viewBox="0 0 10 10" version="1.1">
<g id="surface1">
<path style=" stroke:none;fill-rule:nonzero;fill:rgb(0%,3.921569%,17.647059%);fill-opacity:1;" d="M 4.710938 8.726562 L 5.410156 8.726562 L 5.410156 8.066406 C 5.851562 8.039062 6.273438 7.871094 6.617188 7.589844 C 6.910156 7.324219 7.066406 6.945312 7.050781 6.554688 C 7.066406 6.167969 6.933594 5.789062 6.679688 5.5 C 6.324219 5.15625 5.902344 4.890625 5.4375 4.722656 C 5.0625 4.582031 4.703125 4.398438 4.371094 4.179688 C 4.15625 4.03125 4.035156 3.789062 4.039062 3.53125 C 4.03125 3.289062 4.136719 3.058594 4.324219 2.910156 C 4.550781 2.746094 4.828125 2.664062 5.105469 2.679688 C 5.339844 2.675781 5.570312 2.734375 5.765625 2.859375 C 5.96875 2.992188 6.128906 3.175781 6.238281 3.390625 L 6.847656 3.097656 C 6.71875 2.820312 6.523438 2.582031 6.277344 2.402344 C 6.027344 2.226562 5.738281 2.121094 5.4375 2.097656 L 5.4375 1.449219 L 4.738281 1.449219 L 4.738281 2.097656 C 4.351562 2.132812 3.992188 2.300781 3.714844 2.570312 C 3.464844 2.828125 3.332031 3.175781 3.339844 3.53125 C 3.324219 3.898438 3.460938 4.261719 3.722656 4.523438 C 4.058594 4.816406 4.445312 5.050781 4.863281 5.207031 C 5.285156 5.359375 5.679688 5.578125 6.035156 5.847656 C 6.238281 6.023438 6.355469 6.28125 6.351562 6.554688 C 6.355469 6.8125 6.230469 7.058594 6.015625 7.207031 C 5.765625 7.378906 5.46875 7.464844 5.167969 7.453125 C 4.851562 7.460938 4.542969 7.359375 4.285156 7.175781 C 4.027344 6.988281 3.835938 6.71875 3.746094 6.414062 L 3.097656 6.628906 C 3.25 6.980469 3.472656 7.292969 3.753906 7.550781 C 4.03125 7.785156 4.359375 7.953125 4.710938 8.039062 Z M 5.082031 10.164062 C 4.402344 10.164062 3.734375 10.03125 3.113281 9.761719 C 1.890625 9.242188 0.917969 8.269531 0.398438 7.050781 C -0.132812 5.789062 -0.132812 4.363281 0.398438 3.101562 C 0.65625 2.496094 1.027344 1.949219 1.492188 1.484375 C 1.957031 1.027344 2.507812 0.65625 3.109375 0.398438 C 4.375 -0.132812 5.796875 -0.132812 7.0625 0.398438 C 8.277344 0.914062 9.246094 1.882812 9.761719 3.097656 C 10.292969 4.363281 10.292969 5.785156 9.761719 7.050781 C 9.503906 7.652344 9.136719 8.203125 8.675781 8.667969 C 8.210938 9.132812 7.664062 9.503906 7.0625 9.761719 C 6.4375 10.03125 5.761719 10.167969 5.082031 10.164062 Z M 5.082031 9.398438 C 6.234375 9.421875 7.339844 8.964844 8.144531 8.136719 C 8.964844 7.335938 9.421875 6.230469 9.402344 5.082031 C 9.421875 3.929688 8.96875 2.820312 8.144531 2.019531 C 7.339844 1.195312 6.230469 0.738281 5.082031 0.761719 C 3.933594 0.742188 2.828125 1.195312 2.027344 2.019531 C 1.199219 2.820312 0.742188 3.929688 0.761719 5.082031 C 0.742188 6.230469 1.199219 7.335938 2.027344 8.136719 C 2.824219 8.960938 3.933594 9.417969 5.082031 9.398438 Z M 5.082031 5.082031 Z M 5.082031 5.082031 "/>
</g>
</svg>
