<?xml version="1.0" encoding="UTF-8"?>
<svg xmlns="http://www.w3.org/2000/svg" xmlns:xlink="http://www.w3.org/1999/xlink" width="13px" height="10px" viewBox="0 0 13 10" version="1.1">
<g id="surface1">
<path style=" stroke:none;fill-rule:nonzero;fill:rgb(0%,0%,0%);fill-opacity:1;" d="M 2.761719 9.941406 C 2.289062 9.949219 1.835938 9.753906 1.507812 9.40625 C 1.171875 9.066406 0.984375 8.59375 0.992188 8.105469 L 0 8.105469 L 0 0.933594 C 0 0.683594 0.0976562 0.449219 0.269531 0.28125 C 0.433594 0.101562 0.660156 0 0.898438 0 L 9.589844 0 L 9.589844 2.597656 L 11.164062 2.597656 L 13.207031 5.414062 L 13.207031 8.105469 L 12.140625 8.105469 C 12.140625 8.847656 11.707031 9.519531 11.046875 9.800781 C 10.386719 10.085938 9.625 9.929688 9.117188 9.40625 C 8.777344 9.066406 8.589844 8.59375 8.597656 8.105469 L 4.527344 8.105469 C 4.53125 8.59375 4.34375 9.0625 4.011719 9.40625 C 3.679688 9.75 3.226562 9.941406 2.757812 9.941406 Z M 2.761719 9.007812 C 3.15625 9.007812 3.5 8.734375 3.601562 8.339844 C 3.703125 7.945312 3.539062 7.527344 3.195312 7.324219 C 2.855469 7.121094 2.425781 7.179688 2.144531 7.46875 C 1.898438 7.726562 1.824219 8.113281 1.957031 8.449219 C 2.09375 8.789062 2.410156 9.007812 2.761719 9.007812 Z M 0.898438 7.175781 L 1.230469 7.175781 C 1.390625 6.902344 1.613281 6.671875 1.875 6.503906 C 2.414062 6.171875 3.089844 6.171875 3.625 6.511719 C 3.886719 6.679688 4.109375 6.90625 4.277344 7.175781 L 8.6875 7.175781 L 8.6875 0.933594 L 0.898438 0.933594 Z M 10.371094 9.011719 C 10.785156 9.011719 11.144531 8.707031 11.222656 8.285156 C 11.304688 7.859375 11.085938 7.4375 10.703125 7.273438 C 10.320312 7.109375 9.875 7.246094 9.644531 7.605469 C 9.414062 7.964844 9.460938 8.441406 9.753906 8.746094 C 9.914062 8.917969 10.136719 9.011719 10.371094 9.007812 Z M 9.589844 5.835938 L 12.378906 5.835938 L 10.714844 3.53125 L 9.589844 3.53125 Z M 4.800781 4.21875 Z M 4.800781 4.21875 "/>
</g>
</svg>
