<svg xmlns="http://www.w3.org/2000/svg" width="31.778" height="65" viewBox="0 0 31.778 65">
  <path id="attach_money_FILL0_wght400_GRAD0_opsz48" d="M28.431,71V63.417A16.336,16.336,0,0,1,19.99,59.49a17.057,17.057,0,0,1-4.74-7.628l5.056-2.076a13.172,13.172,0,0,0,4.424,6.455,11.42,11.42,0,0,0,6.951,2.122,11.309,11.309,0,0,0,7.132-2.167,7.121,7.121,0,0,0,2.8-5.958A7.712,7.712,0,0,0,39.128,44.1q-2.483-2.167-9.344-4.424-6.5-2.076-9.7-5.507a12.077,12.077,0,0,1-3.2-8.576,11.527,11.527,0,0,1,3.2-8.306,12.669,12.669,0,0,1,8.351-3.792V6h5.417v7.493a13.936,13.936,0,0,1,7,2.663A14.205,14.205,0,0,1,45.312,21.8l-5.056,2.167a8.937,8.937,0,0,0-3.385-4.2,10.458,10.458,0,0,0-5.552-1.309,10.462,10.462,0,0,0-6.59,1.9A6.172,6.172,0,0,0,22.292,25.5,6.719,6.719,0,0,0,25,31.052q2.708,2.122,10.021,4.378,6.139,1.9,9.073,5.462a13.669,13.669,0,0,1,2.934,8.983,12.669,12.669,0,0,1-3.34,9.163q-3.34,3.476-9.84,4.469V71Z" transform="translate(-15.25 -6)" fill="#000a2d"/>
</svg>
