<svg xmlns="http://www.w3.org/2000/svg" width="64.852" height="65" viewBox="0 0 64.852 65">
  <path id="auto_awesome_FILL0_wght400_GRAD0_opsz48" d="M56.007,23.051l-3.173-7.378-7.673-3.394,7.673-3.32L56.007,1.95l3.173,7.009,7.673,3.32-7.673,3.394Zm0,43.9-3.173-7.083-7.673-3.32,7.673-3.32,3.173-7.452,3.173,7.452,7.673,3.32-7.673,3.32ZM23.617,55.588,16.83,41.053,2,34.413l14.83-6.64,6.788-14.461,6.862,14.461,14.756,6.64-14.756,6.64Zm0-10.919,3.541-7.083,7.23-3.173-7.23-3.173-3.541-7.083L20.15,31.241l-7.3,3.173,7.3,3.173ZM23.617,34.413Z" transform="translate(-2 -1.95)" fill="#000a2d"/>
</svg>
