<svg xmlns="http://www.w3.org/2000/svg" width="72" height="65" viewBox="0 0 72 65">
  <path id="savings_FILL0_wght400_GRAD0_opsz48" d="M54.4,34.789a3.58,3.58,0,0,0,2.565-.984,3.388,3.388,0,0,0,0-4.875,3.836,3.836,0,0,0-5.13,0,3.388,3.388,0,0,0,0,4.875A3.58,3.58,0,0,0,54.4,34.789ZM25.6,26.237h18V21.105h-18ZM13,69Q9.94,59.25,6.97,49.543A67.593,67.593,0,0,1,4,29.658,17.709,17.709,0,0,1,9.76,16.316,19.625,19.625,0,0,1,23.8,10.842h18A18.106,18.106,0,0,1,48.145,5.8,18.344,18.344,0,0,1,56.2,4a5.349,5.349,0,0,1,3.825,1.5A4.827,4.827,0,0,1,61.6,9.132a4.019,4.019,0,0,1-.135,1.026,7.048,7.048,0,0,1-.315.941q-.36.941-.675,1.924a15.178,15.178,0,0,0-.5,2.01l8.19,7.783H76V46.678L65.83,49.842,59.8,69H40V62.158H32.8V69Zm4.05-5.132H27.4V57.026h18v6.842H55.75l5.67-17.961,9.18-2.993V27.947H65.92L54.4,17a20.994,20.994,0,0,1,.585-4.148q.495-2.01,1.035-4.063a27.346,27.346,0,0,0-6.48,2.523,11.4,11.4,0,0,0-4.68,4.661H23.8a14.238,14.238,0,0,0-10.17,4.02A12.858,12.858,0,0,0,9.4,29.658a57.908,57.908,0,0,0,2.61,17.234Q14.62,55.316,17.05,63.868ZM40,36.329Z" transform="translate(-4 -4)" fill="#000a2d"/>
</svg>
