<svg xmlns="http://www.w3.org/2000/svg" width="65" height="65" viewBox="0 0 65 65">
  <path id="support_FILL0_wght400_GRAD0_opsz48" d="M36.5,69a31.647,31.647,0,0,1-12.675-2.559A32.449,32.449,0,0,1,6.559,49.175,31.647,31.647,0,0,1,4,36.5,31.647,31.647,0,0,1,6.559,23.825,32.449,32.449,0,0,1,23.825,6.559,31.647,31.647,0,0,1,36.5,4,31.647,31.647,0,0,1,49.175,6.559,32.449,32.449,0,0,1,66.441,23.825,31.647,31.647,0,0,1,69,36.5a31.647,31.647,0,0,1-2.559,12.675A32.449,32.449,0,0,1,49.175,66.441,31.647,31.647,0,0,1,36.5,69Zm-9.831-6.5,5.119-12.188A14.625,14.625,0,0,1,26.3,46.941a14.788,14.788,0,0,1-3.616-5.647L10.5,46.169a32.931,32.931,0,0,0,6.663,9.994A27.12,27.12,0,0,0,26.669,62.5ZM22.606,31.788A16.317,16.317,0,0,1,26.263,26.1a14.039,14.039,0,0,1,5.444-3.413L26.831,10.5a30.962,30.962,0,0,0-10.319,6.784A24.651,24.651,0,0,0,10.5,26.912ZM36.5,46.25a9.709,9.709,0,0,0,9.75-9.75,9.709,9.709,0,0,0-9.75-9.75,9.709,9.709,0,0,0-9.75,9.75,9.709,9.709,0,0,0,9.75,9.75ZM46.331,62.5a28.8,28.8,0,0,0,9.75-6.459A29.76,29.76,0,0,0,62.5,46.331L50.313,41.294A14.7,14.7,0,0,1,46.7,47.022a13.778,13.778,0,0,1-5.484,3.291Zm3.981-30.794L62.5,26.669A29.589,29.589,0,0,0,46.331,10.5L41.375,22.688a13.575,13.575,0,0,1,5.362,3.372A16.5,16.5,0,0,1,50.313,31.706Z" transform="translate(-4 -4)" fill="#000a2d"/>
</svg>
