<svg xmlns="http://www.w3.org/2000/svg" width="49.524" height="65" viewBox="0 0 49.524 65">
  <path id="workspace_premium_FILL0_wght400_GRAD0_opsz48" d="M25.411,40.214l2.786-8.9-7.351-5.726h8.976l2.94-9.208,2.863,9.208h9.054l-7.351,5.726,2.708,8.9L32.762,34.72ZM14.5,69V45.476a21.9,21.9,0,0,1-4.991-7.97A26.428,26.428,0,0,1,8,28.762,24.32,24.32,0,0,1,32.762,4,24.32,24.32,0,0,1,57.524,28.762a26.428,26.428,0,0,1-1.509,8.744,21.9,21.9,0,0,1-4.991,7.97V69L32.762,62.887ZM32.762,48.881a19.421,19.421,0,0,0,14.277-5.842,19.421,19.421,0,0,0,5.842-14.277,19.421,19.421,0,0,0-5.842-14.277A19.421,19.421,0,0,0,32.762,8.643a19.421,19.421,0,0,0-14.277,5.842,19.421,19.421,0,0,0-5.842,14.277,19.421,19.421,0,0,0,5.842,14.277A19.421,19.421,0,0,0,32.762,48.881ZM19.143,62.5l13.619-4.256L46.381,62.5V49.268a21,21,0,0,1-6.655,3.25,24.61,24.61,0,0,1-13.929,0,21,21,0,0,1-6.655-3.25ZM32.762,55.845Z" transform="translate(-8 -4)"/>
</svg>
