<svg id="diamond_heaven_logo" data-name="diamond heaven logo" xmlns="http://www.w3.org/2000/svg" xmlns:xlink="http://www.w3.org/1999/xlink" width="295.262" height="50.861" viewBox="0 0 295.262 50.861">
  <defs>
    <clipPath id="clip-path">
      <rect id="Rectangle_191" data-name="Rectangle 191" width="21.286" height="22.208"/>
    </clipPath>
    <clipPath id="clip-path-2">
      <rect id="Rectangle_192" data-name="Rectangle 192" width="21.012" height="9.923"/>
    </clipPath>
    <clipPath id="clip-path-3">
      <rect id="Rectangle_193" data-name="Rectangle 193" width="19.089" height="17.798"/>
    </clipPath>
    <clipPath id="clip-path-4">
      <rect id="Rectangle_194" data-name="Rectangle 194" width="6.729" height="6.3"/>
    </clipPath>
    <clipPath id="clip-path-5">
      <rect id="Rectangle_195" data-name="Rectangle 195" width="4.532" height="8.033"/>
    </clipPath>
    <clipPath id="clip-path-6">
      <rect id="Rectangle_196" data-name="Rectangle 196" width="5.905" height="5.198"/>
    </clipPath>
    <clipPath id="clip-path-7">
      <rect id="Rectangle_197" data-name="Rectangle 197" width="9.339" height="18.901"/>
    </clipPath>
    <clipPath id="clip-path-8">
      <path id="Path_349" data-name="Path 349" d="M71.785,41.036a9.652,9.652,0,0,1-5.631-6.3c-.687-2.835-.412-6.458,1.1-10.71s3.3-7.088,5.493-8.505a7.608,7.608,0,0,1,7.553-.315,8.978,8.978,0,0,1,5.356,6.3,18.416,18.416,0,0,1-1.1,10.553c-1.373,4.253-3.3,7.088-5.631,8.505a7.044,7.044,0,0,1-3.845,1.26,6.355,6.355,0,0,1-3.3-.788M70.412,13.945a12.671,12.671,0,0,0-7,8.19,15.962,15.962,0,0,0,0,11.813A14.636,14.636,0,0,0,71.1,41.981a11.613,11.613,0,0,0,10.437.315,13.768,13.768,0,0,0,7-8.348A15.321,15.321,0,0,0,88.4,22.135a15.093,15.093,0,0,0-7.828-7.875A12.925,12.925,0,0,0,75.081,13a11.854,11.854,0,0,0-4.669.945" transform="translate(-62.275 -13)"/>
    </clipPath>
  </defs>
  <g id="Group_48" data-name="Group 48" transform="translate(97.642)">
    <g id="Group_47" data-name="Group 47" clip-path="url(#clip-path)">
      <path id="Path_329" data-name="Path 329" d="M77.417,22.208,71.1,3.938,78.241,0,89.777,5.355,92.386,13.7ZM71.512,4.1l6.043,17.641,14.42-8.19L89.5,5.67,78.241.473Z" transform="translate(-71.1)" fill="#231f20"/>
    </g>
  </g>
  <g id="Group_50" data-name="Group 50" transform="translate(97.78 3.78)">
    <g id="Group_49" data-name="Group 49" clip-path="url(#clip-path-2)">
      <path id="Path_330" data-name="Path 330" d="M92.074,12.323,71.2,2.715l.137-.315,20.874,9.608Z" transform="translate(-71.2 -2.4)" fill="#231f20"/>
    </g>
  </g>
  <g id="Group_52" data-name="Group 52" transform="translate(98.741 1.733)">
    <g id="Group_51" data-name="Group 51" clip-path="url(#clip-path-3)">
      <path id="Path_331" data-name="Path 331" d="M81.788,18.9l-.137-.315,5.905-6.143-7.828,5.2L81.1,9.133l-3.708,7.4L74.509,6.3l.549,8.663h-.275L71.9,3.778,74.784,1.1l.137.315-2.609,2.52,2.335,9.45L74.235,4.88h.275l2.884,10.868L81.239,8.03l.275.158L80.14,16.851l8.377-5.513.137.315L82.886,17.8l7.828-5.355-.549-4.253.275-.158.549,4.568Z" transform="translate(-71.9 -1.1)" fill="#231f20"/>
    </g>
  </g>
  <g id="Group_54" data-name="Group 54" transform="translate(106.569 2.678)">
    <g id="Group_53" data-name="Group 53" clip-path="url(#clip-path-4)">
      <path id="Path_332" data-name="Path 332" d="M79.248,8,77.6,2.645,81.857,1.7l2.472,4.1ZM77.875,2.96l1.511,4.725L83.78,5.8l-2.2-3.623Z" transform="translate(-77.6 -1.7)" fill="#231f20"/>
    </g>
  </g>
  <g id="Group_56" data-name="Group 56" transform="translate(112.749 4.41)">
    <g id="Group_55" data-name="Group 55" clip-path="url(#clip-path-5)">
      <path id="Path_333" data-name="Path 333" d="M84.809,10.833,82.2,5.163,83.985,2.8l2.747,4.253Zm-2.335-5.67,2.335,4.883L86.32,7.053l-2.472-3.78Z" transform="translate(-82.063 -2.8)" fill="#231f20"/>
    </g>
  </g>
  <g id="Group_58" data-name="Group 58" transform="translate(100.938 0.63)">
    <g id="Group_57" data-name="Group 57" clip-path="url(#clip-path-6)">
      <path id="Path_334" data-name="Path 334" d="M73.5,5.6l.549-4.1L78.719.4l.687,3.308Zm.824-3.78-.412,3.308L79.131,3.55,78.581.873Z" transform="translate(-73.5 -0.4)"/>
    </g>
  </g>
  <g id="Group_60" data-name="Group 60" transform="translate(103.822 3.623)">
    <g id="Group_59" data-name="Group 59" clip-path="url(#clip-path-7)">
      <path id="Path_335" data-name="Path 335" d="M75.6,21.2l.824-15.436L78.347,2.3l.275.158L76.7,5.923,75.875,20.1,83.428,8.915,84.664,5.45l.275.158L83.565,9.23Z" transform="translate(-75.6 -2.3)"/>
    </g>
  </g>
  <path id="Path_336" data-name="Path 336" d="M15.93,16.984a13.562,13.562,0,0,0-7-1.575c-.961,0-2.747,0-5.493.158l-3.3.158v.788H.687a3.857,3.857,0,0,1,1.923.315,1.659,1.659,0,0,1,.549,1.1A29.238,29.238,0,0,1,3.3,21.394V32.419a30.588,30.588,0,0,1-.137,3.623,1.185,1.185,0,0,1-.687,1.1,2.33,2.33,0,0,1-1.785.315H0v.788H8.789a31.4,31.4,0,0,0,3.845-.158,10.306,10.306,0,0,0,2.884-.945A7.305,7.305,0,0,0,18.265,35.1a9.288,9.288,0,0,0,1.785-3.308,18.715,18.715,0,0,0,.687-4.725A15.2,15.2,0,0,0,19.5,20.921a10.281,10.281,0,0,0-3.571-3.938m.549,16.853a5.816,5.816,0,0,1-2.747,3.15,8.209,8.209,0,0,1-4.257.788,3.891,3.891,0,0,1-2.335-.315,1.719,1.719,0,0,1-.687-1.418,31.058,31.058,0,0,1-.137-4.41V16.354h2.2a16.06,16.06,0,0,1,3.845.473,6.065,6.065,0,0,1,2.747,1.89,11.847,11.847,0,0,1,1.923,3.78,22.508,22.508,0,0,1,.687,5.2,15.758,15.758,0,0,1-1.236,6.143" transform="translate(0 8.847)"/>
  <path id="Path_337" data-name="Path 337" d="M16.537,16.445h.412a3.857,3.857,0,0,1,1.923.315,1.659,1.659,0,0,1,.549,1.1,29.238,29.238,0,0,1,.137,3.465V32.511a30.588,30.588,0,0,1-.137,3.623,1.185,1.185,0,0,1-.687,1.1,2.439,2.439,0,0,1-1.785.315H16.4v.788h9.2v-.788h-.549a2.4,2.4,0,0,1-1.785-.473c-.275,0-.549-.315-.549-.945a29.238,29.238,0,0,1-.137-3.465V21.328a31.948,31.948,0,0,1,.137-3.623,1.377,1.377,0,0,1,.687-1.1,4.127,4.127,0,0,1,1.923-.315h.412V15.5h-9.2Z" transform="translate(6.122 8.913)"/>
  <path id="Path_338" data-name="Path 338" d="M42.928,36.033l-.961-2.363L35.237,15.4h-.549L28.92,31.308l-.687,1.89a15.192,15.192,0,0,1-1.511,3.465,3.509,3.509,0,0,1-1.923,1.1v.788h5.768v-.788a2.508,2.508,0,0,1-1.511-.473,2.044,2.044,0,0,1-.687-1.575,13.74,13.74,0,0,1,1.1-4.1l.549-1.418h7.553l1.511,4.253a10.012,10.012,0,0,1,.687,2.205.869.869,0,0,1-.549.945,8.169,8.169,0,0,1-1.923.315v.788h7.828v-.788a1.917,1.917,0,0,1-1.511-.63,3.535,3.535,0,0,1-.687-1.26M30.293,29.418l3.571-9.765,3.571,9.765Z" transform="translate(9.258 8.856)"/>
  <path id="Path_339" data-name="Path 339" d="M54.758,34.716l-7.279-18.9H41.3V16.6h.549a3.857,3.857,0,0,1,1.923.315,1.659,1.659,0,0,1,.549,1.1,29.239,29.239,0,0,1,.137,3.465v9.923a37.729,37.729,0,0,1-.137,3.938,3.077,3.077,0,0,1-.961,1.733,3.4,3.4,0,0,1-2.06.788v.788h7.141v-.788a3.789,3.789,0,0,1-2.2-.788,3.077,3.077,0,0,1-.961-1.733,34.778,34.778,0,0,1-.137-3.78V18.178l8.1,20.476h.687L61.9,18.02V32.668a30.59,30.59,0,0,1-.137,3.623,1.185,1.185,0,0,1-.687,1.1,2.33,2.33,0,0,1-1.785.315H58.6V38.5h9.613v-.788h-.824a2.4,2.4,0,0,1-1.785-.473,2.06,2.06,0,0,1-.549-1.26,29.239,29.239,0,0,1-.137-3.465V21.328a31.948,31.948,0,0,1,.137-3.623,1.377,1.377,0,0,1,.687-1.1,4.127,4.127,0,0,1,1.923-.315h.687V15.5h-6.18Z" transform="translate(15.418 8.913)"/>
  <path id="Path_340" data-name="Path 340" d="M98.157,16.388a9.326,9.326,0,0,1,2.06.315,2.188,2.188,0,0,1,1.1.945,5.682,5.682,0,0,1,.275,2.205v13.7L89.78,15.6H83.875v.788a4.706,4.706,0,0,1,2.06.315,1.837,1.837,0,0,1,.687,1.1A29.442,29.442,0,0,1,86.9,21.27V33.556a17.5,17.5,0,0,1-.137,2.678,2.353,2.353,0,0,1-.961,1.1,5.176,5.176,0,0,1-2.2.63v.788h7.416v-.788a5.689,5.689,0,0,1-2.335-.473,1.8,1.8,0,0,1-.961-1.1,16.5,16.5,0,0,1-.137-2.678V17.648l14.145,21.578h.687V20.168a5.276,5.276,0,0,1,.275-2.048,2.353,2.353,0,0,1,.961-1.1,10.3,10.3,0,0,1,2.06-.63V15.6H98.432v.788Z" transform="translate(31.209 8.971)"/>
  <path id="Path_341" data-name="Path 341" d="M116.93,16.984a13.562,13.562,0,0,0-7-1.575c-.961,0-2.747,0-5.493.158l-3.3.158v.788h.549a3.857,3.857,0,0,1,1.923.315,1.659,1.659,0,0,1,.549,1.1,29.239,29.239,0,0,1,.137,3.465V32.419a30.589,30.589,0,0,1-.137,3.623,1.185,1.185,0,0,1-.687,1.1,2.439,2.439,0,0,1-1.785.315H101v.788h8.789a31.4,31.4,0,0,0,3.845-.158,10.306,10.306,0,0,0,2.884-.945,7.305,7.305,0,0,0,2.747-2.048,10.014,10.014,0,0,0,1.785-3.465,16.583,16.583,0,0,0,.687-4.568,15.2,15.2,0,0,0-1.236-6.143,9.326,9.326,0,0,0-3.571-3.938m.549,16.853a5.816,5.816,0,0,1-2.747,3.15,8.209,8.209,0,0,1-4.257.788,3.891,3.891,0,0,1-2.335-.315,1.719,1.719,0,0,1-.687-1.418,31.061,31.061,0,0,1-.137-4.41V16.354c.824,0,1.511-.158,2.335-.158a16.06,16.06,0,0,1,3.845.473,6.065,6.065,0,0,1,2.747,1.89,11.847,11.847,0,0,1,1.923,3.78,22.507,22.507,0,0,1,.687,5.2,13.959,13.959,0,0,1-1.373,6.3" transform="translate(37.704 8.847)"/>
  <path id="Path_342" data-name="Path 342" d="M137.758,16.618h.549a3.857,3.857,0,0,1,1.923.315,1.659,1.659,0,0,1,.549,1.1,29.242,29.242,0,0,1,.137,3.465v4.568H130.48V21.5a31.945,31.945,0,0,1,.137-3.623,1.659,1.659,0,0,1,.549-1.1,3.857,3.857,0,0,1,1.923-.315h.412v-.788h-9.064v.788h.412a3.857,3.857,0,0,1,1.923.315,1.659,1.659,0,0,1,.549,1.1,29.239,29.239,0,0,1,.137,3.465V32.526a30.589,30.589,0,0,1-.137,3.623,1.185,1.185,0,0,1-.687,1.1,2.33,2.33,0,0,1-1.785.315H124.3v.788h9.064v-.788h-.549a2.4,2.4,0,0,1-1.785-.473,2.06,2.06,0,0,1-.549-1.26,29.242,29.242,0,0,1-.137-3.465V26.855H140.78v5.513a30.586,30.586,0,0,1-.137,3.623,1.185,1.185,0,0,1-.687,1.1,2.33,2.33,0,0,1-1.785.315h-.687V38.2h9.064v-.788h-.412a2.4,2.4,0,0,1-1.785-.473,1.512,1.512,0,0,1-.549-1.26,29.239,29.239,0,0,1-.137-3.465V21.028a31.948,31.948,0,0,1,.137-3.623,1.659,1.659,0,0,1,.549-1.1,4.127,4.127,0,0,1,1.923-.315h.275V15.2h-9.064Z" transform="translate(46.402 8.741)"/>
  <path id="Path_343" data-name="Path 343" d="M157.069,35.446a4.813,4.813,0,0,1-1.923,1.89,7.068,7.068,0,0,1-2.609.473h-1.511c-1.373,0-2.2-.315-2.472-.788a13.805,13.805,0,0,1-.412-4.725V26.783h2.2a6.854,6.854,0,0,1,1.785.158,1.479,1.479,0,0,1,.824.788,7.9,7.9,0,0,1,.275,2.52h.687V22.373h-.687a13.64,13.64,0,0,1-.137,2.363c-.137.473-.412.788-.824.788a9.326,9.326,0,0,1-2.06.315h-2.2V16.23h2.747a9.875,9.875,0,0,1,3.021.315,2.746,2.746,0,0,1,1.648,1.26,10.086,10.086,0,0,1,1.1,3.465h.687l-.275-5.67h-14.42v.788a4.127,4.127,0,0,1,1.923.315,1.659,1.659,0,0,1,.549,1.1,29.232,29.232,0,0,1,.137,3.465V32.453a31.941,31.941,0,0,1-.137,3.623,1.659,1.659,0,0,1-.549,1.1,3.92,3.92,0,0,1-1.923.473H142.1v.788h16.617l.412-7.088h-.687a11,11,0,0,1-1.373,4.1" transform="translate(53.047 8.971)"/>
  <path id="Path_344" data-name="Path 344" d="M174.028,36.033l-.961-2.363L166.337,15.4h-.549L160.02,31.308l-.687,1.89a15.192,15.192,0,0,1-1.511,3.465,3.509,3.509,0,0,1-1.923,1.1v.788h5.905v-.788a2.508,2.508,0,0,1-1.511-.473,1.6,1.6,0,0,1-.549-1.575,13.739,13.739,0,0,1,1.1-4.1l.549-1.418h7.553l1.511,4.253a10.014,10.014,0,0,1,.687,2.205.869.869,0,0,1-.549.945,8.169,8.169,0,0,1-1.923.315v.788H176.5v-.788a1.917,1.917,0,0,1-1.511-.63,2.052,2.052,0,0,1-.961-1.26m-12.5-6.615,3.571-9.765,3.571,9.765Z" transform="translate(58.199 8.856)"/>
  <path id="Path_345" data-name="Path 345" d="M184.293,16.445c1.648,0,2.472.63,2.472,2.048a13.947,13.947,0,0,1-1.236,4.1L180.86,35.346l-5.768-15.278a15.317,15.317,0,0,1-.687-2.363,1.086,1.086,0,0,1,.549-1.1,9.383,9.383,0,0,1,2.2-.315V15.5H168.5v.788a3.5,3.5,0,0,1,2.06.63,6.786,6.786,0,0,1,1.236,2.205,8.83,8.83,0,0,1,.549,1.733l6.867,18.271h.824L185.941,22.9l1.373-3.623a6.788,6.788,0,0,1,1.236-2.205,2.143,2.143,0,0,1,1.648-.788V15.5h-5.905Z" transform="translate(62.903 8.913)"/>
  <path id="Path_346" data-name="Path 346" d="M200.169,35.446a4.813,4.813,0,0,1-1.923,1.89,7.068,7.068,0,0,1-2.609.473h-1.511c-1.373,0-2.2-.315-2.472-.788a13.805,13.805,0,0,1-.412-4.725V26.783h2.2a6.854,6.854,0,0,1,1.785.158,1.479,1.479,0,0,1,.824.788,7.9,7.9,0,0,1,.275,2.52h.687V22.373h-.687a13.643,13.643,0,0,1-.137,2.363c-.137.473-.412.788-.824.788a9.326,9.326,0,0,1-2.06.315h-2.2V16.23h2.747a9.875,9.875,0,0,1,3.021.315,2.746,2.746,0,0,1,1.648,1.26,10.085,10.085,0,0,1,1.1,3.465h.687l-.412-5.67H185.612v.788a4.127,4.127,0,0,1,1.923.315,1.659,1.659,0,0,1,.549,1.1,29.242,29.242,0,0,1,.137,3.465V32.453a31.952,31.952,0,0,1-.137,3.623,1.659,1.659,0,0,1-.549,1.1,3.919,3.919,0,0,1-1.923.473H185.2v.788h16.617l.412-7.088h-.687a8.418,8.418,0,0,1-1.373,4.1" transform="translate(69.137 8.971)"/>
  <path id="Path_347" data-name="Path 347" d="M213.42,15.6v.788a9.326,9.326,0,0,1,2.06.315,2.188,2.188,0,0,1,1.1.945,5.682,5.682,0,0,1,.275,2.205v13.7L205.043,15.6h-5.905v.788a4.706,4.706,0,0,1,2.06.315,1.837,1.837,0,0,1,.687,1.1,29.438,29.438,0,0,1,.275,3.465V33.556a17.5,17.5,0,0,1-.137,2.678,3.128,3.128,0,0,1-.824,1.1,5.175,5.175,0,0,1-2.2.63v.788h7.416v-.788a5.689,5.689,0,0,1-2.335-.473,1.8,1.8,0,0,1-.961-1.1,15.511,15.511,0,0,1-.137-2.52V17.648l14.145,21.578h.687V20.168a10.272,10.272,0,0,1,.137-2.048,2.353,2.353,0,0,1,.961-1.1,10.3,10.3,0,0,1,2.06-.63V15.6Z" transform="translate(74.289 8.971)"/>
  <g id="Group_62" data-name="Group 62" transform="translate(85.523 20.476)">
    <path id="Path_348" data-name="Path 348" d="M71.785,41.036a9.652,9.652,0,0,1-5.631-6.3c-.687-2.835-.412-6.458,1.1-10.71s3.3-7.088,5.493-8.505a7.608,7.608,0,0,1,7.553-.315,8.978,8.978,0,0,1,5.356,6.3,18.416,18.416,0,0,1-1.1,10.553c-1.373,4.253-3.3,7.088-5.631,8.505a7.044,7.044,0,0,1-3.845,1.26,6.355,6.355,0,0,1-3.3-.788M70.412,13.945a12.671,12.671,0,0,0-7,8.19,15.962,15.962,0,0,0,0,11.813A14.636,14.636,0,0,0,71.1,41.981a11.613,11.613,0,0,0,10.437.315,13.768,13.768,0,0,0,7-8.348A15.321,15.321,0,0,0,88.4,22.135a15.093,15.093,0,0,0-7.828-7.875A12.925,12.925,0,0,0,75.081,13a11.854,11.854,0,0,0-4.669.945" transform="translate(-62.275 -13)"/>
    <g id="Group_61" data-name="Group 61" clip-path="url(#clip-path-8)">
      <path id="Path_350" data-name="Path 350" d="M1.828,1.793,41.748,0,39.92,36.848,0,38.642Z" transform="translate(-11.967 27.592) rotate(-68.222)"/>
    </g>
  </g>
</svg>
