<svg id="Kisna_logo" data-name="Kisna logo" xmlns="http://www.w3.org/2000/svg" width="155.554" height="127.057" viewBox="0 0 155.554 127.057">
  <g id="Group_46" data-name="Group 46" transform="translate(0 0)">
    <path id="Path_320" data-name="Path 320" d="M416.975,107.822a4.5,4.5,0,0,1-4.155-4.717c.017-2.58,1.926-4.745,4.172-4.725,2.215.016,4.13,2.269,4.1,4.821-.031,2.484-1.93,4.622-4.113,4.626Zm.014-.518c2.055-.012,3.619-1.8,3.63-4.139.01-2.273-1.624-4.211-3.585-4.255-2-.04-3.741,1.966-3.72,4.279A3.9,3.9,0,0,0,416.988,107.3Z" transform="translate(-269.292 -62.333)"/>
    <g id="Group_45" data-name="Group 45">
      <g id="Group_44" data-name="Group 44">
        <path id="Path_321" data-name="Path 321" d="M153.893,72.826a10,10,0,0,1-3.734-1.909c-8.977-7.2-17.363-16.438-31.117-16.6,19.588-1.549,27.021-14.808,32.431-17.969,2.628-1.535,7.823-.771,10.034.418-5.166-5.728-10.75-9.615-16-11.623-3.633-1.389-7.242.56-9.836,3.437-4.356,4.833-5.9,11.255-10.382,16.387-.3.338-.584.68-.862,1.033-3.3,4.142-8.108,6.706-13.511,8.488-.007-.025-.014-.047-.021-.073.233-.065.466-.135.7-.2-.271-.076-.542-.153-.814-.233-.01-.036-.017-.069-.028-.105a41.467,41.467,0,0,1,4.384-10.124,23.5,23.5,0,0,1,5.865-6.517c8.327-6.35,15.562-9.462,16.984-14.074C140.275,17.5,135.387,7.614,126.98.3c1.2,3.648,2.389,6.011.789,9.921a13.664,13.664,0,0,1-2.243,3.644c-7.35,8.681-14.571,17.263-14.971,31.129C109.318,27.219,96.843,16.509,92.932,10.96c-1.784-2.535-.132-8.7,1.047-10.99C88.4,5.265,84.153,10.876,82.567,16.484a11.016,11.016,0,0,0,2.656,10.659c4.537,4.648,10.907,6.39,15.729,11.179.316.316.64.622.97.92,4.026,3.64,6.571,8.655,8.195,14.532a33.823,33.823,0,0,1-9.318-4.095,24.179,24.179,0,0,1-6.509-6.055c-4.235-6.066-6.6-11.706-9.366-15.019a9.847,9.847,0,0,0-9.234-3.528c-4.815.855-10.044,4.695-16.73,11.612a16.3,16.3,0,0,1,6.762-1.207,7.96,7.96,0,0,1,4.2,1.258,7.056,7.056,0,0,1,1,.793C79.066,45.3,85.547,52.7,101.46,54.207,84.584,55.843,76.226,66.9,69.495,72.55c-2.347,1.971-8.341.549-10.531-.684C63.97,77.623,69.3,81.634,74.6,83.325a9.9,9.9,0,0,0,10.225-2.56c4.572-4.76,5.9-11.812,10.542-16.914.292-.32.574-.647.852-.982,3.456-4.2,8.487-6.626,14.1-8.3-.007.036-.014.073-.021.105-.358.113-.72.225-1.085.331.32.084.64.16.96.24a31.049,31.049,0,0,1-4.141,9.8,23.954,23.954,0,0,1-5.911,6.386c-6.436,4.819-11.237,6.786-14.669,10.052a10.215,10.215,0,0,0-2.872,9.877c1.2,4.673,4.9,10.248,10.854,16.634-1-3.117-1.377-5.506-.584-8.564a10.851,10.851,0,0,1,1.937-3.913c7.113-9.2,14.849-16.474,15.712-31.842,1.026,17.216,11.637,26.038,16.31,32.162a9.174,9.174,0,0,1,1.773,3.978,13.714,13.714,0,0,1-1.2,8.179c5.542-5.193,9.572-10.332,11.237-15.859a11.631,11.631,0,0,0-3.063-11.081c-4.513-4.644-11.272-6.215-16.042-11.034-.306-.309-.615-.607-.935-.9-3.741-3.422-5.865-8.2-7.385-13.637,3.167.742,6.387,1.447,9.238,3.251,2.462,1.556,4.238,4.582,5.977,6.979,6.227,8.586,9.339,16.1,13.771,17.5,5.455,2.28,12.871-1.942,21.959-11.7-2.973,1.138-5.267,2.062-8.24,1.291Z" transform="translate(-38.461 0.03)" fill="#aba6a1"/>
        <path id="Path_322" data-name="Path 322" d="M41.48,103.09h13.7c-.626.152-1.446.331-2.256.55-3.046.833-5.313,2.959-7.27,5.662-2.409,3.326-4.9,6.575-7.346,9.861-.278.371-.539.758-.869,1.22,2.131,2.779,4.21,5.5,6.3,8.214,2.18,2.831,4.325,5.694,6.564,8.462a10.179,10.179,0,0,0,7.256,3.892,10.957,10.957,0,0,0,5.139-1.18c1.756-.8,1.957-2.951,2.027-4.837.153-4.119.2-8.25.212-12.373.01-3.976-.024-7.955-.146-11.931-.143-4.693-1-5.766-4.982-6.7-.431-.1-.852-.267-1.279-.4.014-.124.028-.251.042-.375H75.685l.066.287c-.445.16-.887.347-1.339.471-4.026,1.124-4.812,1.695-4.93,6.44-.209,8.338-.1,16.7.136,25.038.1,3.744,1.871,5.3,5.16,5.519a1.053,1.053,0,0,1,.841.522,4.046,4.046,0,0,1-.845.2c-5.292.044-10.583.064-15.871.116-.949.008-1.895.183-2.844.231-4.7.239-8.89-.969-12.165-5.244-3.633-4.741-7.406-9.339-11.223-14.132,2.013-2.528,4.057-5.008,6.015-7.572,1.683-2.2,3.376-4.41,4.874-6.771,1.589-2.508,1.036-3.952-1.6-4.857a3.342,3.342,0,0,1-.487-.307Z" transform="translate(-21.311 -67.36)"/>
        <path id="Path_323" data-name="Path 323" d="M269.607,141.655c-8.6-10.475-17.147-20.883-25.735-31.338-.205.287-.348.391-.348.494.1,7.257.08,14.523.389,21.768.177,4.131,1.568,5.579,5.1,6.631.577.171,1.137.407,1.707.61-.024.144-.052.287-.077.431H235.726c-.021-.136-.042-.271-.066-.407a4.981,4.981,0,0,1,.827-.283c3.126-.467,4.77-2.2,5.18-5.782a70.367,70.367,0,0,0,.462-7.413c.076-7.907.059-15.818.083-23.726,0-.427.031-.853.066-1.711,8.6,10.348,16.97,20.42,25.613,30.824.066-.969.125-1.44.125-1.906,0-5.323.042-10.647-.028-15.97a41.582,41.582,0,0,0-.487-5.77c-.494-3.2-1.909-4.7-4.7-5.327-.633-.144-1.255-.343-1.884-.518l.049-.411h13.594c-.4.279-.563.486-.751.514a4.166,4.166,0,0,0-3.564,3.756,37.487,37.487,0,0,0-.8,6.456c-.09,8.7-.049,17.413-.038,26.118,0,.981.122,1.966.188,2.959Z" transform="translate(-153.726 -66.071)"/>
        <path id="Path_324" data-name="Path 324" d="M360.555,99.008c1.481,3.952,2.806,7.493,4.137,11.033q4.235,11.269,8.476,22.53a31.687,31.687,0,0,0,1.3,2.911,4.965,4.965,0,0,0,3.971,2.959,3.035,3.035,0,0,1,.619.14c.052.02.073.163.181.419H365.12l-.042-.335c.379-.124.758-.247,1.133-.375,2.2-.762,3.091-2.4,2.413-4.873-.876-3.214-1.884-6.38-2.913-9.534a1.5,1.5,0,0,0-1.123-.857q-5.074-.1-10.145.008a1.334,1.334,0,0,0-1.008.782c-.831,3.07-1.693,6.141-2.312,9.267-.674,3.393.574,5.06,3.685,5.355a12.245,12.245,0,0,1,1.259.215c.038.008.056.163.136.427H342.973c-.024-.116-.049-.227-.073-.343a11.352,11.352,0,0,1,1.189-.479,5.741,5.741,0,0,0,4.082-3.948q3.265-9.552,6.606-19.068c1.853-5.279,3.751-10.539,5.785-16.241ZM354.4,120.684h10.309c-1.763-4.562-3.452-8.932-5.142-13.3l-.369.072c-1.582,4.354-3.164,8.713-4.8,13.227Z" transform="translate(-223.681 -64.764)"/>
        <path id="Path_325" data-name="Path 325" d="M168.435,128.778c.268.782.532,1.563.807,2.345,1.526,4.354,3.929,7.608,8.205,8.4,3.588.666,6.488-.953,7.6-4.318a7.889,7.889,0,0,0-1.8-8.3c-1.874-1.934-4.179-3.314-6.248-5.008a28.047,28.047,0,0,1-4.478-4.011c-4.221-5.323-1.968-13.892,4.325-16.357a12.758,12.758,0,0,1,11.466,1.16c.271.156.643.55.626.805a66.712,66.712,0,0,1-.907,7.987c-.153-.558-.327-1.109-.455-1.675-.654-2.843-1.544-5.519-3.967-7.026a5.917,5.917,0,0,0-7.788,1.8,7.282,7.282,0,0,0,.153,8.848,18.208,18.208,0,0,0,3.567,3.405c1.721,1.328,3.595,2.393,5.351,3.672,3.039,2.217,5.149,5.144,5.156,9.534,0,4.45-2.176,8.194-5.98,9.873a14.1,14.1,0,0,1-14.133-1.109,2.066,2.066,0,0,1-.949-1.109c-.438-2.9-.775-5.826-1.144-8.741l.6-.179Z" transform="translate(-109.486 -65.89)"/>
        <path id="Path_326" data-name="Path 326" d="M15.593,103.579c-.522.16-1.036.343-1.565.479-2.319.59-3.1,1.455-3.491,4.087a26.384,26.384,0,0,0-.275,3.7q-.037,10.659,0,21.321a22.325,22.325,0,0,0,.278,3.405c.421,2.688,2.159,4.083,5.326,4.386.358.036.713.1,1.071.144l-.021.395H.038c-.014-.1-.024-.211-.038-.315.6-.152,1.2-.283,1.8-.459,3-.881,4.092-2.169,4.134-5.67.1-8.25.129-16.5-.01-24.751-.07-4.159-.973-5.132-4.489-6.308a1.451,1.451,0,0,1-.862-.8h15l.031.383Z" transform="translate(0 -67.39)"/>
        <path id="Path_327" data-name="Path 327" d="M417.915,108.1a3.9,3.9,0,0,1-3.675-4.115c-.021-2.313,1.724-4.318,3.72-4.279,1.961.04,3.6,1.978,3.585,4.255A3.859,3.859,0,0,1,417.915,108.1Zm-1.547-1.938h.987c-.07-.77-.136-1.491-.2-2.213l.358-.144c.379.51.727,1.061,1.147,1.523a10.5,10.5,0,0,0,1.2,1c.059-.092.115-.183.174-.279-.49-.682-.98-1.364-1.286-1.786.313-.885.893-1.731.713-2.157-.668-1.6-2.041-.73-3.087-.929v4.984Z" transform="translate(-270.218 -63.704)" fill="#fff"/>
        <path id="Path_328" data-name="Path 328" d="M420.36,108.223v-4.984a5.2,5.2,0,0,1,2.062,0,1.226,1.226,0,0,1,1.022,1.368,1.419,1.419,0,0,1-1.391,1.352c.306.423,2.055,2.285,2.055,2.285h-.921l-2.037-2.237.024,2.213h-.81Zm.737-2.991c.949.02,1.575.032,1.575-.686,0-.805-1.1-.566-1.575-.614Z" transform="translate(-274.21 -65.779)"/>
      </g>
      <text id="GOLD_DIAMOND_JEWELLERY" data-name="GOLD &amp; DIAMOND JEWELLERY" transform="translate(4 125.057)" fill="#231f20" font-size="9" font-family="Times" letter-spacing="0.07em"><tspan x="0" y="0">GOLD &amp; DIAMOND JEWELLE</tspan><tspan y="0" letter-spacing="0.01em">R</tspan><tspan y="0" letter-spacing="0.03em">Y</tspan></text>
    </g>
  </g>
</svg>
