<svg xmlns="http://www.w3.org/2000/svg" width="27.508" height="20.423" viewBox="0 0 27.508 20.423">
  <path id="icons8-youtube" d="M29.74,12.51a3.626,3.626,0,0,0-2.872-2.745A56.784,56.784,0,0,0,16.657,9a57.621,57.621,0,0,0-10.274.765A3.542,3.542,0,0,0,3.511,12.51,41.873,41.873,0,0,0,3,19.211a34.734,34.734,0,0,0,.573,6.7,3.632,3.632,0,0,0,2.872,2.745,58.708,58.708,0,0,0,10.276.765A58.708,58.708,0,0,0,27,28.657a3.545,3.545,0,0,0,2.872-2.745,48.956,48.956,0,0,0,.638-6.7A44.658,44.658,0,0,0,29.74,12.51ZM13.211,23.679V14.744L21,19.211Z" transform="translate(-3 -9)" fill="#fff"/>
</svg>
