<svg xmlns="http://www.w3.org/2000/svg" width="16.594" height="29.357" viewBox="0 0 16.594 29.357">
  <path id="icons8-facebook-f" d="M24.764,7.744h3.191a.638.638,0,0,0,.638-.638v-4.3A.637.637,0,0,0,28,2.17C26.988,2.1,25,2,23.578,2c-3.919,0-6.472,2.349-6.472,6.617v4.233H12.638a.638.638,0,0,0-.638.638v4.467a.638.638,0,0,0,.638.638h4.467V30.719a.638.638,0,0,0,.638.638h4.467a.638.638,0,0,0,.638-.638V18.593h4.609a.638.638,0,0,0,.634-.568l.5-4.467a.638.638,0,0,0-.634-.708H22.849V9.658A1.914,1.914,0,0,1,24.764,7.744Z" transform="translate(-12 -2)" fill="#fff"/>
</svg>
