<svg xmlns="http://www.w3.org/2000/svg" width="31.987" height="25.994" viewBox="0 0 31.987 25.994">
  <path id="icons8-twitter" d="M31.929,8.694a13.128,13.128,0,0,1-3.772,1.035A6.579,6.579,0,0,0,31.044,6.1a13.177,13.177,0,0,1-4.168,1.591,6.565,6.565,0,0,0-11.181,5.986A18.634,18.634,0,0,1,2.168,6.816,6.577,6.577,0,0,0,4.2,15.582a6.557,6.557,0,0,1-2.974-.823v.082a6.572,6.572,0,0,0,5.263,6.437,6.567,6.567,0,0,1-1.728.229,6.322,6.322,0,0,1-1.237-.12,6.578,6.578,0,0,0,6.13,4.56A13.155,13.155,0,0,1,1.5,28.755a12.9,12.9,0,0,1-1.563-.092A18.542,18.542,0,0,0,10,31.612c12.071,0,18.672-10,18.672-18.67,0-.284-.007-.571-.017-.85A13.341,13.341,0,0,0,31.929,8.694Z" transform="translate(0.059 -5.617)" fill="#fff"/>
</svg>
