<svg xmlns="http://www.w3.org/2000/svg" width="29.366" height="25.441" viewBox="0 0 29.366 25.441">
  <path id="icons8-vimeo" d="M26.89,5c-4.333,0-6.721,2.423-8.189,7.155a7.117,7.117,0,0,1,2.236-.636c1.468,0,1.957.546,1.748,2.241a10.455,10.455,0,0,1-1.748,4.747c-1.259,1.907-2.353,2.448-2.982,2.448-.768,0-1.351-1.1-1.979-4.071-.209-.848-.7-2.755-1.259-6.355-.489-3.318-2.114-5.1-4.42-4.891-.977.07-2.146.98-4.1,2.675C4.795,9.585,3.468,10.5,2,11.773l1.4,1.792A7.386,7.386,0,0,1,5.7,12.294c.977,0,1.885,1.553,2.795,4.732.768,2.894,1.605,5.789,2.376,8.683,1.187,3.179,2.655,4.732,4.333,4.732,2.795,0,6.148-2.54,10.131-7.766,3.911-4.944,5.878-9.037,6.018-11.931C31.5,6.932,29.964,5.07,26.89,5Z" transform="translate(-2 -5)" fill="#fff"/>
</svg>
