<svg xmlns="http://www.w3.org/2000/svg" width="28.081" height="28.081" viewBox="0 0 28.081 28.081">
  <path id="icons8-instagram" d="M11.3,3A8.3,8.3,0,0,0,3,11.3V22.784a8.3,8.3,0,0,0,8.3,8.3H22.784a8.3,8.3,0,0,0,8.3-8.3V11.3a8.3,8.3,0,0,0-8.3-8.3ZM24.7,8.106a1.276,1.276,0,1,1-1.276,1.276A1.28,1.28,0,0,1,24.7,8.106ZM17.04,10.02a7.02,7.02,0,1,1-7.02,7.02A7.024,7.024,0,0,1,17.04,10.02Zm0,1.276a5.744,5.744,0,1,0,5.744,5.744A5.752,5.752,0,0,0,17.04,11.3Z" transform="translate(-3 -3)" fill="#fff"/>
</svg>
