<svg xmlns="http://www.w3.org/2000/svg" width="25.636" height="25.636" viewBox="0 0 25.636 25.636">
  <path id="AR_button_icon" data-name="AR button icon" d="M13.886,23.936,7.477,20.178a1.591,1.591,0,0,1-.626-.641,1.823,1.823,0,0,1-.218-.874V11.177A1.823,1.823,0,0,1,6.85,10.3a1.591,1.591,0,0,1,.626-.641l6.438-3.816a1.866,1.866,0,0,1,1.806,0l6.438,3.816a1.591,1.591,0,0,1,.626.641,1.823,1.823,0,0,1,.218.874v7.487a1.733,1.733,0,0,1-.233.874,1.693,1.693,0,0,1-.641.641l-6.5,3.758a1.755,1.755,0,0,1-1.748,0Zm.058-2.01V15.4L8.409,12.225v6.38Zm1.748,0,5.564-3.321v-6.38L15.692,15.4ZM2,7.506V5.263A3.233,3.233,0,0,1,5.263,2H7.506V3.748H5.263A1.493,1.493,0,0,0,3.748,5.263V7.506Zm3.263,20.13A3.233,3.233,0,0,1,2,24.373V22.13H3.748v2.243a1.493,1.493,0,0,0,1.515,1.515H7.506v1.748ZM22.13,27.52V25.772h2.243a1.493,1.493,0,0,0,1.515-1.515V22.014h1.748v2.243a3.233,3.233,0,0,1-3.263,3.263ZM25.888,7.506V5.263a1.493,1.493,0,0,0-1.515-1.515H22.13V2h2.243a3.233,3.233,0,0,1,3.263,3.263V7.506Zm-11.07,6.322,5.535-3.2L14.818,7.448,9.283,10.623ZM14.818,14.556ZM14.818,13.828ZM15.692,15.4ZM13.944,15.4Z" transform="translate(-2 -2)" fill="#7f7d7d"/>
</svg>
