<svg xmlns="http://www.w3.org/2000/svg" width="18.653" height="18.653" viewBox="0 0 18.653 18.653">
  <path id="Icon_metro-cross" data-name="Icon metro-cross" d="M21.053,16.913h0l-5.659-5.659L21.053,5.6h0a.584.584,0,0,0,0-.824L18.38,2.1a.584.584,0,0,0-.824,0h0L11.9,7.757,6.239,2.1h0a.584.584,0,0,0-.824,0L2.741,4.771a.584.584,0,0,0,0,.824h0L8.4,11.254,2.741,16.913h0a.584.584,0,0,0,0,.824l2.673,2.673a.584.584,0,0,0,.824,0h0L11.9,14.752l5.659,5.659h0a.584.584,0,0,0,.824,0l2.673-2.673a.584.584,0,0,0,0-.824Z" transform="translate(-2.571 -1.928)" fill="#818181"/>
</svg>
