<svg xmlns="http://www.w3.org/2000/svg" width="16.781" height="16.781" viewBox="0 0 16.781 16.781">
  <path id="Icon_metro-cross" data-name="Icon metro-cross" d="M19.2,15.41h0l-5.091-5.091L19.2,5.228h0a.526.526,0,0,0,0-.741l-2.4-2.4a.526.526,0,0,0-.741,0h0L10.961,7.172,5.871,2.081h0a.526.526,0,0,0-.741,0l-2.4,2.4a.526.526,0,0,0,0,.741h0l5.091,5.091L2.724,15.41h0a.526.526,0,0,0,0,.741l2.4,2.4a.526.526,0,0,0,.741,0h0l5.091-5.091,5.091,5.091h0a.526.526,0,0,0,.741,0l2.4-2.4a.526.526,0,0,0,0-.741Z" transform="translate(-2.571 -1.928)" fill="#000a2d"/>
</svg>
