<svg id="undraw_asset_selection_re_k5fj" xmlns="http://www.w3.org/2000/svg" width="189.061" height="130.507" viewBox="0 0 189.061 130.507">
  <path id="Path_130" data-name="Path 130" d="M864.671,405.7a62.673,62.673,0,0,1-2.928,17.325c-.041.13-.084.258-.126.389H850.691c.012-.117.023-.247.035-.389.728-8.375,4.929-59.348-.093-68.065C851.072,355.662,865.518,379.084,864.671,405.7Z" transform="translate(-683.343 -311.567)" fill="#f0f0f0"/>
  <path id="Path_131" data-name="Path 131" d="M875.435,499.032c-.091.13-.186.26-.284.389h-8.2c.062-.111.134-.241.218-.389,1.354-2.444,5.362-9.75,9.082-17.325,4-8.14,7.666-16.589,7.357-19.647C883.707,462.75,886.473,483.774,875.435,499.032Z" transform="translate(-694.926 -388.395)" fill="#f0f0f0"/>
  <path id="Path_132" data-name="Path 132" d="M314.961,240.955c-5.022,8.717-.822,59.69-.093,68.065.012.142.023.272.035.388H303.977c-.043-.13-.086-.258-.126-.388a62.673,62.673,0,0,1-2.928-17.325C300.076,265.084,314.522,241.662,314.961,240.955Z" transform="translate(-293.19 -224.437)" fill="#f0f0f0"/>
  <path id="Path_133" data-name="Path 133" d="M274.749,348.061c-.309,3.058,3.359,11.507,7.357,19.647,3.72,7.575,7.728,14.881,9.082,17.325.083.148.155.278.218.389h-8.2c-.1-.128-.192-.258-.284-.389C271.887,369.774,274.654,348.75,274.749,348.061Z" transform="translate(-274.373 -304.603)" fill="#f0f0f0"/>
  <path id="Path_134" data-name="Path 134" d="M471.813,215.746H288.507a.266.266,0,0,1,0-.532H471.813a.266.266,0,1,1,0,.532Z" transform="translate(-284.215 -206.169)" fill="#cacaca"/>
  <circle id="Ellipse_17" data-name="Ellipse 17" cx="2.926" cy="2.926" r="2.926" transform="translate(7.354)" fill="#3f3d56"/>
  <circle id="Ellipse_18" data-name="Ellipse 18" cx="2.926" cy="2.926" r="2.926" transform="translate(17.463)" fill="#3f3d56"/>
  <circle id="Ellipse_19" data-name="Ellipse 19" cx="2.926" cy="2.926" r="2.926" transform="translate(27.573)" fill="#3f3d56"/>
  <path id="Path_135" data-name="Path 135" d="M880.857,187.62h-7.183a.532.532,0,0,1,0-1.064h7.183a.532.532,0,1,1,0,1.064Z" transform="translate(-699.317 -185.83)" fill="#3f3d56"/>
  <path id="Path_136" data-name="Path 136" d="M880.857,194.493h-7.183a.532.532,0,0,1,0-1.064h7.183a.532.532,0,1,1,0,1.064Z" transform="translate(-699.317 -190.708)" fill="#3f3d56"/>
  <path id="Path_137" data-name="Path 137" d="M880.857,201.366h-7.183a.532.532,0,0,1,0-1.064h7.183a.532.532,0,1,1,0,1.064Z" transform="translate(-699.317 -195.586)" fill="#3f3d56"/>
  <path id="Path_138" data-name="Path 138" d="M714.412,360.013H645.319a2.034,2.034,0,0,1-2.032-2.032V267.987a2.034,2.034,0,0,1,2.032-2.032h69.092a2.034,2.034,0,0,1,2.032,2.032v89.994a2.034,2.034,0,0,1-2.032,2.032Zm-69.092-93.478a1.453,1.453,0,0,0-1.451,1.452v89.994a1.453,1.453,0,0,0,1.451,1.452h69.092a1.453,1.453,0,0,0,1.452-1.452V267.987a1.453,1.453,0,0,0-1.452-1.452Z" transform="translate(-536.19 -246.846)" fill="#e6e6e6"/>
  <path id="Path_139" data-name="Path 139" d="M738.853,335.752H709.532a2.035,2.035,0,0,1-2.032-2.032V310.786a2.034,2.034,0,0,1,2.032-2.032h29.321a2.034,2.034,0,0,1,2.032,2.032V333.72A2.034,2.034,0,0,1,738.853,335.752Z" transform="translate(-581.762 -275.42)" fill="#e6e6e6"/>
  <path id="Path_140" data-name="Path 140" d="M738.64,467.953H709.32a2.035,2.035,0,0,1-2.032-2.032V442.987a2.035,2.035,0,0,1,2.032-2.032H738.64a2.034,2.034,0,0,1,2.032,2.032v22.934A2.035,2.035,0,0,1,738.64,467.953ZM709.32,441.535a1.453,1.453,0,0,0-1.452,1.452v22.934a1.453,1.453,0,0,0,1.452,1.452H738.64a1.453,1.453,0,0,0,1.452-1.452V442.987a1.453,1.453,0,0,0-1.451-1.452Z" transform="translate(-581.611 -372.282)" fill="#3f3d56"/>
  <path id="Path_141" data-name="Path 141" d="M766.64,489.953H737.32a2.035,2.035,0,0,1-2.032-2.032V464.987a2.034,2.034,0,0,1,2.032-2.032H766.64a2.034,2.034,0,0,1,2.032,2.032v22.934A2.034,2.034,0,0,1,766.64,489.953Z" transform="translate(-601.482 -388.401)" fill="#f8c49a"/>
  <path id="Path_142" data-name="Path 142" d="M768,502.729h-14.72a.307.307,0,0,1-.055,0l6.962-12.059a.488.488,0,0,1,.849,0l4.672,8.092.224.387Z" transform="translate(-614.212 -407.709)" fill="#fff"/>
  <path id="Path_143" data-name="Path 143" d="M517.46,339.062h-5.025l2.467-3.583.178-.258.088-.129.224.387Z" transform="translate(-363.673 -244.207)" opacity="0.2" style="mix-blend-mode: normal;isolation: isolate"/>
  <path id="Path_144" data-name="Path 144" d="M801.227,511.416H788.5l2.467-3.583.178-.258,3.215-4.67a.65.65,0,0,1,.966-.058.579.579,0,0,1,.046.058Z" transform="translate(-639.244 -416.47)" fill="#fff"/>
  <circle id="Ellipse_20" data-name="Ellipse 20" cx="2.181" cy="2.181" r="2.181" transform="translate(159.206 79.189)" fill="#fff"/>
  <path id="Path_145" data-name="Path 145" d="M373.046,523.863H303.953a2.035,2.035,0,0,1-2.032-2.032V498.9a2.035,2.035,0,0,1,2.032-2.032h69.092a2.034,2.034,0,0,1,2.032,2.032v22.934A2.035,2.035,0,0,1,373.046,523.863Z" transform="translate(-293.924 -413.246)" fill="#e6e6e6"/>
  <path id="Path_146" data-name="Path 146" d="M372.046,329.957H302.953a2.034,2.034,0,0,1-2.032-2.032V271.9a2.034,2.034,0,0,1,2.032-2.032h69.092a2.034,2.034,0,0,1,2.032,2.032v56.029a2.035,2.035,0,0,1-2.032,2.032Zm-69.092-59.512A1.453,1.453,0,0,0,301.5,271.9v56.029a1.453,1.453,0,0,0,1.452,1.451h69.092a1.453,1.453,0,0,0,1.452-1.451V271.9a1.453,1.453,0,0,0-1.452-1.451Z" transform="translate(-293.214 -247.75)" fill="#3f3d56"/>
  <path id="Path_147" data-name="Path 147" d="M411.046,364.957H341.953a2.035,2.035,0,0,1-2.032-2.032V306.9a2.034,2.034,0,0,1,2.032-2.032h69.092a2.034,2.034,0,0,1,2.032,2.032v56.029a2.035,2.035,0,0,1-2.032,2.032Z" transform="translate(-320.892 -273.729)" fill="#f8c49a"/>
  <path id="Path_148" data-name="Path 148" d="M406.52,392.246H371.247a.729.729,0,0,1-.132-.01l16.683-28.9a1.168,1.168,0,0,1,2.033,0l11.2,19.392.536.928Z" transform="translate(-343.03 -315.073)" fill="#fff"/>
  <path id="Path_149" data-name="Path 149" d="M189.259,257.047H177.216l5.912-8.587.426-.619.213-.309.536.928Z" transform="translate(-125.77 -180.597)" opacity="0.2" style="mix-blend-mode: normal;isolation: isolate"/>
  <path id="Path_150" data-name="Path 150" d="M486.144,413.064H455.635l5.912-8.587.425-.619,7.7-11.191a1.559,1.559,0,0,1,2.314-.138,1.394,1.394,0,0,1,.111.138Z" transform="translate(-403.014 -336.229)" fill="#fff"/>
  <circle id="Ellipse_21" data-name="Ellipse 21" cx="5.225" cy="5.225" r="5.225" transform="translate(75.812 38.461)" fill="#fff"/>
  <path id="Path_151" data-name="Path 151" d="M632.966,468.461a2.787,2.787,0,0,1,1.862-.3l9.976-9.322-1.656-8.312,6.549.355.586,10.089-13.2,10.278a2.8,2.8,0,1,1-4.12-2.792Z" transform="translate(-528.064 -407.602)" fill="#ffb8b8"/>
  <path id="Path_152" data-name="Path 152" d="M318.041,487.6h-4.288l-2.04-16.54h6.329Z" transform="translate(-224.154 -361.73)" fill="#ffb6b6"/>
  <path id="Path_153" data-name="Path 153" d="M581.6,703.955H567.774v-.175a5.382,5.382,0,0,1,5.382-5.382H581.6Z" transform="translate(-486.62 -573.93)" fill="#2f2e41"/>
  <path id="Path_154" data-name="Path 154" d="M410.041,487.6h-4.288l-2.04-16.54h6.329Z" transform="translate(-283.974 -361.73)" fill="#ffb6b6"/>
  <path id="Path_155" data-name="Path 155" d="M673.6,703.955H659.773v-.175a5.382,5.382,0,0,1,5.382-5.382H673.6Z" transform="translate(-546.44 -573.93)" fill="#2f2e41"/>
  <path id="Path_156" data-name="Path 156" d="M662.228,434.072a3.5,3.5,0,0,0-4.463-.871h0a3.5,3.5,0,0,0-1.565,4.224l2.1,5.841,8.613-3.273Z" transform="translate(-543.982 -395.166)" fill="#ccc"/>
  <path id="Path_157" data-name="Path 157" d="M612.273,508.883a7.117,7.117,0,0,0-1.257-.754L595.34,510.54l.345,9.819c-7.582,14.31-12.6,30.636-15.331,48.748l9.819,2.239c4.394-17.02,9.383-32.293,15.675-43.753l6.632,43.339,11.282-.275C622.276,545.18,621.13,515.479,612.273,508.883Z" transform="translate(-494.8 -450.213)" fill="#2f2e41"/>
  <ellipse id="Ellipse_22" data-name="Ellipse 22" cx="6.11" cy="6.11" rx="6.11" ry="6.11" transform="translate(99.663 25.088)" fill="#ffb8b8"/>
  <path id="Path_158" data-name="Path 158" d="M640.952,441.217a7.933,7.933,0,0,0-4.371-8.436h0l-6.89.345h0a7.617,7.617,0,0,0-5.08,4.347c-2.987,6.99-3.412,15.926-2.154,26.142l16.32-3.882C636.538,454.693,638.337,448.111,640.952,441.217Z" transform="translate(-521.743 -395.885)" fill="#ccc"/>
  <path id="Path_159" data-name="Path 159" d="M616.5,393.449h0a6.3,6.3,0,0,1,6.3-6.3h.361a6.438,6.438,0,0,1,4.011-1.4h0a6.471,6.471,0,0,1,6.471,6.471v8.22a50.068,50.068,0,0,0-13.991,2.1c1.278-3.539,2.127-6.793,1.547-9.094Z" transform="translate(-518.303 -363.639)" fill="#2f2e41"/>
  <path id="Path_160" data-name="Path 160" d="M574.3,468.619a2.787,2.787,0,0,1,1.775.636l13.228-3.381,2.542-8.085,5.573,3.459-4.335,9.129-16.512,2.671a2.8,2.8,0,1,1-2.272-4.428Z" transform="translate(-489.042 -412.252)" fill="#ffb8b8"/>
  <path id="Path_161" data-name="Path 161" d="M635.048,442.426a3.5,3.5,0,0,0-1.845-4.156h0a3.5,3.5,0,0,0-4.359,1.139l-3.58,5.071,7.619,5.181Z" transform="translate(-524.002 -398.697)" fill="#ccc"/>
  <path id="Path_162" data-name="Path 162" d="M576.289,714.255H505.37a.346.346,0,0,1,0-.691h70.919a.346.346,0,1,1,0,.691Z" transform="translate(-438.066 -583.748)" fill="#cacaca"/>
</svg>
