<svg id="undraw_portfolio_update_re_jqnp" xmlns="http://www.w3.org/2000/svg" width="235.623" height="130.545" viewBox="0 0 235.623 130.545">
  <path id="Path_163" data-name="Path 163" d="M226.176,664.794c-3.992-.328-7.516-3.216-9.52-6.684-.672-1.163-1.133-2.688-.372-3.8a2.088,2.088,0,0,1,3.687.479,20.219,20.219,0,0,1-.314-4.119,3.749,3.749,0,0,1,1.223-3.139,2.8,2.8,0,0,1,3.572.925,8.134,8.134,0,0,1,1.239,3.827,3.529,3.529,0,0,1,3.923-4.45,4.6,4.6,0,0,1,3.449,3.27,10.02,10.02,0,0,1,.022,4.955,14.422,14.422,0,0,1-2.112,5.436,7.782,7.782,0,0,1-4.683,3.3Z" transform="translate(-211.67 -534.729)" fill="#f2f2f2"/>
  <path id="Path_165" data-name="Path 165" d="M586.026,266.327H427.342a2.283,2.283,0,0,0-2.281,2.281V376.136a2.283,2.283,0,0,0,2.281,2.281H586.026a2.283,2.283,0,0,0,2.281-2.281V268.608A2.283,2.283,0,0,0,586.026,266.327Zm1.629,109.808a1.63,1.63,0,0,1-1.629,1.629H427.342a1.63,1.63,0,0,1-1.629-1.629V268.608a1.63,1.63,0,0,1,1.629-1.629H586.026a1.63,1.63,0,0,1,1.629,1.629Z" transform="translate(-352.684 -266.327)" fill="#3f3d56"/>
  <rect id="Rectangle_94" data-name="Rectangle 94" width="162.595" height="0.652" transform="translate(72.702 9.137)" fill="#3f3d56"/>
  <circle id="Ellipse_23" data-name="Ellipse 23" cx="1.955" cy="1.955" r="1.955" transform="translate(76.287 2.933)" fill="#3f3d56"/>
  <circle id="Ellipse_24" data-name="Ellipse 24" cx="1.955" cy="1.955" r="1.955" transform="translate(81.907 2.933)" fill="#3f3d56"/>
  <circle id="Ellipse_25" data-name="Ellipse 25" cx="1.955" cy="1.955" r="1.955" transform="translate(87.528 2.933)" fill="#3f3d56"/>
  <path id="Path_166" data-name="Path 166" d="M498.016,335.327H469.342a2.283,2.283,0,0,0-2.281,2.281v28.674a2.283,2.283,0,0,0,2.281,2.281h28.674a2.284,2.284,0,0,0,2.281-2.281V337.608A2.283,2.283,0,0,0,498.016,335.327Zm1.629,30.955a1.63,1.63,0,0,1-1.629,1.629H469.342a1.63,1.63,0,0,1-1.629-1.629V337.608a1.63,1.63,0,0,1,1.629-1.629h28.674a1.63,1.63,0,0,1,1.629,1.629Z" transform="translate(-380.999 -315.245)" fill="#3f3d56"/>
  <path id="Path_167" data-name="Path 167" d="M656.353,335.827H627.679a2.122,2.122,0,0,0-2.118,2.118v28.674a2.122,2.122,0,0,0,2.118,2.118h28.674a2.122,2.122,0,0,0,2.118-2.118V337.945A2.122,2.122,0,0,0,656.353,335.827Z" transform="translate(-487.853 -315.593)" fill="#f8c49a"/>
  <path id="Path_168" data-name="Path 168" d="M814.353,335.827H785.679a2.122,2.122,0,0,0-2.118,2.118v28.674a2.122,2.122,0,0,0,2.118,2.118h28.674a2.122,2.122,0,0,0,2.118-2.118V337.945A2.122,2.122,0,0,0,814.353,335.827Z" transform="translate(-594.37 -315.593)" fill="#e6e6e6"/>
  <path id="Path_169" data-name="Path 169" d="M498.353,467.827H469.679a2.122,2.122,0,0,0-2.118,2.118v28.674a2.122,2.122,0,0,0,2.118,2.118h28.674a2.122,2.122,0,0,0,2.118-2.118V469.945A2.122,2.122,0,0,0,498.353,467.827Z" transform="translate(-381.336 -409.161)" fill="#e6e6e6"/>
  <path id="Path_170" data-name="Path 170" d="M656.353,467.827H627.679a2.122,2.122,0,0,0-2.118,2.118v28.674a2.122,2.122,0,0,0,2.118,2.118h28.674a2.122,2.122,0,0,0,2.118-2.118V469.945A2.122,2.122,0,0,0,656.353,467.827Z" transform="translate(-487.853 -409.161)" fill="#f8c49a"/>
  <path id="Path_171" data-name="Path 171" d="M814.353,467.827H785.679a2.122,2.122,0,0,0-2.118,2.118v28.674a2.122,2.122,0,0,0,2.118,2.118h28.674a2.122,2.122,0,0,0,2.118-2.118V469.945A2.122,2.122,0,0,0,814.353,467.827Z" transform="translate(-594.37 -409.161)" fill="#e6e6e6"/>
  <path id="Path_172" data-name="Path 172" d="M476.853,414.237H448.179a2.12,2.12,0,0,1-2.118-2.118V383.445a2.12,2.12,0,0,1,2.118-2.118h28.674a2.12,2.12,0,0,1,2.118,2.118v28.674a2.12,2.12,0,0,1-2.118,2.118Z" transform="translate(-366.842 -347.845)" fill="#f8c49a"/>
  <path id="Path_173" data-name="Path 173" d="M193.393,458.033l3.819-1.172-2.7-15.288-5.636,1.73Z" transform="translate(-127.33 -331.808)" fill="#a0616a"/>
  <path id="Path_174" data-name="Path 174" d="M0,0H12.555V4.851h-7.7A4.851,4.851,0,0,1,0,0Z" transform="translate(78.335 126.34) rotate(162.939)" fill="#2f2e41"/>
  <path id="Path_175" data-name="Path 175" d="M102.747,460.478h3.995l1.9-15.408h-5.9Z" transform="translate(-69.267 -334.165)" fill="#a0616a"/>
  <path id="Path_176" data-name="Path 176" d="M0,0H12.555V4.851h-7.7A4.851,4.851,0,0,1,0,0H0Z" transform="translate(45.178 130.022) rotate(179.997)" fill="#2f2e41"/>
  <path id="Path_177" data-name="Path 177" d="M302.7,462.446a2.985,2.985,0,0,1,.1-4.577l3.1-39,6.3,1.574-5.043,38.045a3,3,0,0,1-4.456,3.96Z" transform="translate(-269.51 -375.074)" fill="#a0616a"/>
  <circle id="Ellipse_26" data-name="Ellipse 26" cx="8.003" cy="8.003" r="8.003" transform="translate(37.804 18.571)" fill="#a0616a"/>
  <path id="Path_178" data-name="Path 178" d="M319.338,392.323a6.772,6.772,0,0,1,.084-8.265c1.269-1.547,3.393-2.786,6.938-2.786a14.537,14.537,0,0,1,13.034,7.494s3.91,7.169,1.629,13.685-2.281,7.169-2.281,7.169l-14.989-1.3S326.282,401.855,319.338,392.323Z" transform="translate(-280.49 -347.647)" fill="#ccc"/>
  <path id="Path_179" data-name="Path 179" d="M307.977,405.843l3.229-10.564a5.051,5.051,0,0,1,7.146-3.012h0a5.06,5.06,0,0,1,2.31,6.52l-4.105,9.349Z" transform="translate(-273.751 -354.631)" fill="#ccc"/>
  <path id="Path_180" data-name="Path 180" d="M327.5,463.272l12.708,65.82-6.843,1.955-16.618-43.337-7.494,44.314L302.08,533s-3.144-58.633,10.753-69.4Z" transform="translate(-269.57 -410.734)" fill="#2f2e41"/>
  <path id="Path_181" data-name="Path 181" d="M385.2,436.7a3.433,3.433,0,0,0-.314.44l-16.141.783-3.108-9.488-5.4,2.565,5.079,14.132,19.962-3.9a3.42,3.42,0,1,0-.082-4.527Z" transform="translate(-308.988 -380.512)" fill="#a0616a"/>
  <path id="Path_182" data-name="Path 182" d="M353.243,395.505a5.051,5.051,0,0,1,5.332-5.631h0a5.06,5.06,0,0,1,4.736,5.041v10.21l-8.777,1.35Z" transform="translate(-304.244 -353.341)" fill="#ccc"/>
  <path id="Path_183" data-name="Path 183" d="M324.455,334.9a2.328,2.328,0,0,1-2.074-2.47,4.085,4.085,0,0,1,1.831-2.963A19.851,19.851,0,0,1,327.4,327.8a6.808,6.808,0,0,0,2.825-2.166,4.8,4.8,0,0,0,.333-4.4,7.061,7.061,0,0,0-3.041-3.331,9.247,9.247,0,0,0-12.254,2.688l-1.371,3.733a6.1,6.1,0,0,0-.76,6.184,7.988,7.988,0,0,0,4.751,4.24,11.663,11.663,0,0,0,6.465.194" transform="translate(-276.888 -300.246)" fill="#2f2e41"/>
  <path id="Path_184" data-name="Path 184" d="M276.169,329.686a4.885,4.885,0,0,0-2.667-1.9,8.382,8.382,0,0,0-11.024,7.5,25.933,25.933,0,0,0,.911,6.095c.379,2.025.454,4.262-.663,5.994a8.96,8.96,0,0,1-3.669,2.858,7.077,7.077,0,0,1-3.732,1.028,2.7,2.7,0,0,1-2.578-2.457,10.445,10.445,0,0,0-.874,2.959,3.528,3.528,0,0,0,.9,2.855c1.08,1.042,2.79.966,4.274.741a18.717,18.717,0,0,0,9-3.428c2.537-2.028,4.221-5.368,3.553-8.547a21.011,21.011,0,0,0-1.465-3.789,7.053,7.053,0,0,1-.7-3.95,4.8,4.8,0,0,1,2.441-3.252,6.387,6.387,0,0,1,4.08-.619c.912.15,2.051.382,2.592-.367a1.469,1.469,0,0,0-.031-1.567,4.317,4.317,0,0,0-1.171-1.16" transform="translate(-235.916 -307.471)" fill="#2f2e41"/>
  <path id="Path_185" data-name="Path 185" d="M303.456,701.067H203.327a.388.388,0,0,1,0-.776H303.456a.388.388,0,1,1,0,.776Z" transform="translate(-202.939 -570.522)" fill="#3f3d56"/>
</svg>
