<svg id="undraw_augmented_reality_re_f0qd" xmlns="http://www.w3.org/2000/svg" width="223.025" height="129.123" viewBox="0 0 223.025 129.123">
  <path id="Path_43" data-name="Path 43" d="M466.986,287.478H275.034a6.733,6.733,0,0,0-6.725,6.725V395.458a6.693,6.693,0,0,0,1.832,4.606c.119.127.243.249.37.362a6.676,6.676,0,0,0,4.523,1.758H466.986a6.733,6.733,0,0,0,6.725-6.725V294.2A6.733,6.733,0,0,0,466.986,287.478Z" transform="translate(-250.686 -273.06)" fill="#fff"/>
  <path id="Path_44" data-name="Path 44" d="M634.179,456.44a.673.673,0,0,1-.487-1.166l.046-.183-.018-.044a1.806,1.806,0,0,0-3.332.012,16.039,16.039,0,0,0-1.41,4.015,5.344,5.344,0,0,0,.094,1.838,21.423,21.423,0,0,1-1.949-8.9,20.675,20.675,0,0,1,.128-2.307q.106-.942.295-1.87a21.673,21.673,0,0,1,4.3-9.185,5.767,5.767,0,0,0,2.4-2.489,4.4,4.4,0,0,0,.4-1.2,5.43,5.43,0,0,1-.352-1.872c-.163-.247-.454-.37-.632-.611-.884-1.2-2.1-.989-2.738.639-1.358.685-1.371,1.822-.538,2.916.53.7.6,1.637,1.068,2.381-.048.061-.1.121-.145.182a21.818,21.818,0,0,0-2.277,3.607,9.068,9.068,0,0,0-.541-4.212,15.189,15.189,0,0,0-2.345-3.383,1.861,1.861,0,0,0-3.315.914l-.005.048q.191.107.373.228a.912.912,0,0,1-.368,1.66l-.019,0a9.093,9.093,0,0,0,.239,1.357c-1.1,4.243,1.272,5.789,4.654,5.858.075.038.147.077.222.113a22.264,22.264,0,0,0-1.2,5.64,21.113,21.113,0,0,0,.015,3.41l-.006-.04a5.58,5.58,0,0,0-1.9-3.222c-1.466-1.2-3.537-1.648-5.118-2.615a1.047,1.047,0,0,0-1.6,1.019l.006.042a6.138,6.138,0,0,1,.687.331q.191.107.373.228a.912.912,0,0,1-.368,1.66l-.019,0-.038.006a9.085,9.085,0,0,0,1.671,2.617c.686,3.7,3.633,4.056,6.785,2.977h0a22.257,22.257,0,0,0,1.5,4.365h5.341c.019-.059.036-.121.054-.18a6.068,6.068,0,0,1-1.478-.088c.4-.486.793-.976,1.189-1.463a.328.328,0,0,0,.025-.029c.2-.249.4-.5.6-.745h0a8.889,8.889,0,0,0-.26-2.264Z" transform="translate(-496.801 -369.113)" fill="#f2f2f2"/>
  <path id="Path_45" data-name="Path 45" d="M473.711,532.059v10.762a6.733,6.733,0,0,1-6.725,6.725H275.034a6.676,6.676,0,0,1-4.523-1.758c-.127-.113-.252-.234-.37-.362a6.693,6.693,0,0,1-1.832-4.606V532.059C326.743,522.409,398.608,525.676,473.711,532.059Z" transform="translate(-250.686 -440.875)" fill="#3f3d56"/>
  <path id="Path_46" data-name="Path 46" d="M473.711,575.629v10.762a6.733,6.733,0,0,1-6.725,6.725H275.034a6.676,6.676,0,0,1-4.523-1.758c-.127-.113-.252-.234-.37-.362a6.693,6.693,0,0,1-1.832-4.606V575.629C322.1,568.432,395.29,570.749,473.711,575.629Z" transform="translate(-250.686 -472.589)" fill="#fff"/>
  <path id="Path_47" data-name="Path 47" d="M473.711,605.952v10.762a6.733,6.733,0,0,1-6.725,6.725H275.034a6.676,6.676,0,0,1-4.523-1.758c-.127-.113-.252-.234-.37-.362a6.693,6.693,0,0,1-1.832-4.606V605.952C326.506,599.908,397.411,601.342,473.711,605.952Z" transform="translate(-250.686 -494.316)" fill="#3f3d56"/>
  <path id="Path_48" data-name="Path 48" d="M869.179,451.44a.673.673,0,0,1-.487-1.166l.046-.183-.018-.044a1.806,1.806,0,0,0-3.332.012,16.041,16.041,0,0,0-1.41,4.015,5.34,5.34,0,0,0,.094,1.838,21.423,21.423,0,0,1-1.949-8.9,20.69,20.69,0,0,1,.128-2.307q.106-.942.295-1.87a21.672,21.672,0,0,1,4.3-9.185,5.767,5.767,0,0,0,2.4-2.489,4.4,4.4,0,0,0,.4-1.2,5.431,5.431,0,0,1-.352-1.872c-.163-.247-.454-.37-.632-.611-.884-1.2-2.1-.989-2.738.639-1.358.685-1.371,1.822-.538,2.916.53.7.6,1.637,1.068,2.381-.048.061-.1.121-.146.182a21.806,21.806,0,0,0-2.277,3.607,9.067,9.067,0,0,0-.541-4.212,15.187,15.187,0,0,0-2.345-3.383,1.861,1.861,0,0,0-3.315.914l-.005.048q.191.108.373.228a.912.912,0,0,1-.368,1.66l-.019,0a9.078,9.078,0,0,0,.239,1.357c-1.1,4.243,1.271,5.789,4.654,5.858.075.038.147.077.222.113a22.264,22.264,0,0,0-1.2,5.64,21.126,21.126,0,0,0,.015,3.409l-.006-.04a5.58,5.58,0,0,0-1.9-3.222c-1.466-1.2-3.537-1.648-5.118-2.615a1.047,1.047,0,0,0-1.6,1.019l.006.042a6.117,6.117,0,0,1,.687.331q.191.107.373.228a.912.912,0,0,1-.368,1.66l-.019,0-.038.006a9.085,9.085,0,0,0,1.671,2.617c.686,3.7,3.633,4.056,6.785,2.977h0a22.256,22.256,0,0,0,1.5,4.365h5.341c.019-.059.036-.121.054-.18a6.067,6.067,0,0,1-1.478-.088c.4-.486.793-.976,1.189-1.463a.328.328,0,0,0,.025-.029c.2-.249.4-.5.6-.745h0a8.887,8.887,0,0,0-.26-2.264Z" transform="translate(-662.147 -365.405)" fill="#f2f2f2"/>
  <path id="Path_49" data-name="Path 49" d="M843.8,522.941c0,.1,0,.193,0,.289H824.262a3.263,3.263,0,0,1-2.384-1.032c.007-.136.019-.27.033-.4.575-5.52,7.759-13.842,10.915-9.826S843.8,516.881,843.8,522.941Z" transform="translate(-640.18 -426.246)" fill="#3f3d56"/>
  <path id="Path_50" data-name="Path 50" d="M894.646,531c0,.067,0,.135,0,.2H881.027a2.274,2.274,0,0,1-1.662-.72c.005-.095.013-.188.023-.282.4-3.848,6.474-10.637,7.608-6.849C889.887,533.006,894.586,527.2,894.646,531Z" transform="translate(-680.628 -434.316)" fill="#3f3d56"/>
  <path id="Path_52" data-name="Path 52" d="M358.068,596.851c0,.1,0,.21,0,.313H336.892a3.536,3.536,0,0,1-2.584-1.119c.008-.147.02-.293.036-.438.623-5.983,6.791-7.126,11.83-10.649C351.844,580.992,357.965,589.828,358.068,596.851Z" transform="translate(-297.124 -481.675)" fill="#3f3d56"/>
  <path id="Path_53" data-name="Path 53" d="M391,599.063c-.045.057,0,.146,0,.218H376.237a2.465,2.465,0,0,1-1.8-.78c.005-.1.014-.2.025-.305a8.4,8.4,0,0,1,8.245-7.423C390.693,590.542,394.8,594.227,391,599.063Z" transform="translate(-325.358 -486.452)" fill="#3f3d56"/>
  <path id="Path_54" data-name="Path 54" d="M381.068,509.878c0,.1,0,.21,0,.313H359.892a3.536,3.536,0,0,1-2.584-1.119c.008-.147.02-.293.036-.438.623-5.983,7.347-7.9,11.829-10.65S381.068,503.31,381.068,509.878Z" transform="translate(-313.307 -416.353)" fill="#3f3d56"/>
  <path id="Path_55" data-name="Path 55" d="M414,509.679a1.2,1.2,0,0,0,0,.218H399.237a2.465,2.465,0,0,1-1.8-.78c.005-.1.014-.2.025-.305.434-4.17,4.192-6.03,8.245-7.423C412.4,499.088,415.167,503.827,414,509.679Z" transform="translate(-341.541 -418.551)" fill="#3f3d56"/>
  <path id="Path_56" data-name="Path 56" d="M448,523.247a1.748,1.748,0,0,1,0,.218H433.237a2.464,2.464,0,0,1-1.8-.78c.005-.1.014-.2.025-.305.434-4.17,5.254-4.354,8.245-7.423C442.478,512.113,447.392,517.717,448,523.247Z" transform="translate(-365.464 -428.421)" fill="#3f3d56"/>
  <rect id="Rectangle_93" data-name="Rectangle 93" width="5.928" height="72.617" transform="translate(163.153 56.506)" fill="#3f3d56"/>
  <path id="Path_57" data-name="Path 57" d="M718.381,228.112a19.1,19.1,0,0,0-4.544-11.782c-1.251-1.393-6.539-4.659-8.225-5.48.64-5.036,4.084-7.94,1.565-12.247a16.4,16.4,0,0,0-16.133-7.745,15.616,15.616,0,0,0-6.272,2.419,16.046,16.046,0,0,0-8.009-3.495,24.748,24.748,0,0,0-23.854,10.593c-.764,1.16-.816,2.9-.418,4.965a16.634,16.634,0,0,1-10.434,18.692,1.069,1.069,0,0,0-.387.248,16.939,16.939,0,0,0-3.518,17.511c.54,1.387.7,3.8,2.184,3.864,9.572.422,10.306,5.646,4.878,13.415-1.136,1.626.515,3.924,1.543,5.653,2.365,3.981,7.14,6.026,11.764,6.3,4.6.273,9.15-.946,13.6-2.158l5.928-.237a29.249,29.249,0,0,0,15.27-1.085c5.214-1.971,9.76-6.079,11.485-11.379.59-1.811,10.741.459,10.59-1.446,2.525-1.289-5.11-7.229-3.2-9.328A24.094,24.094,0,0,0,718.381,228.112Z" transform="translate(-510.152 -189.522)" fill="#f8c49a"/>
  <path id="Path_58" data-name="Path 58" d="M815.052,422.329a18.246,18.246,0,0,1-8.328,9.867,24.787,24.787,0,0,0,5.662-1.383,19.6,19.6,0,0,0,10.534-9.11C819.912,421.706,815.438,421.145,815.052,422.329Z" transform="translate(-629.518 -360.346)" opacity="0.1"/>
  <path id="Path_59" data-name="Path 59" d="M770,245.39a24.094,24.094,0,0,0,6.186-17.277,19.1,19.1,0,0,0-4.544-11.782c-1.251-1.393-6.538-4.659-8.225-5.48.64-5.036,4.084-7.94,1.565-12.247a16.4,16.4,0,0,0-16.133-7.745,15.617,15.617,0,0,0-6.272,2.419,16.046,16.046,0,0,0-8.009-3.495,24.477,24.477,0,0,0-15.339,2.842,23.178,23.178,0,0,1,6.519.053,16.046,16.046,0,0,1,8.009,3.495c1.891-1.239,7.372-4.4,6.272-2.419-4.7,8.476.855,12.636,16.133,7.745,2.433-.779-.82,3.305-4.66,8.152a6.168,6.168,0,0,0,6,9.886c2.743-.52,4.9-.781,5.325-.311,2.866,3.192,13.235,8.227,4.544,11.782s-1.953,12.635-6.186,17.277c-1.343,1.474,2.022,4.843,3.27,7.164,3.077-.238,8.863.711,8.748-.732C775.721,253.428,768.086,247.488,770,245.39Z" transform="translate(-567.955 -189.523)" opacity="0.1"/>
  <path id="Path_61" data-name="Path 61" d="M769.754,498.706a36.676,36.676,0,0,1-7.815-22.087,1.791,1.791,0,0,1,1.09-2.283l16.68-5.9a1.791,1.791,0,0,1,2.283,1.09l7.815,22.087a1.791,1.791,0,0,1-1.09,2.283l-16.68,5.9A1.791,1.791,0,0,1,769.754,498.706Z" transform="translate(-597.934 -396.462)" fill="#e6e6e6"/>
  <path id="Path_62" data-name="Path 62" d="M772.747,495.724c-2.943-2.976-4.2-8.284-5.024-14.2a1.677,1.677,0,0,1,1.02-2.138l14.335-5.072a1.677,1.677,0,0,1,2.138,1.02l6.954,19.654a1.677,1.677,0,0,1-1.02,2.138l-8.881,3.142A7.47,7.47,0,0,1,772.747,495.724Z" transform="translate(-602.009 -400.353)" fill="#fff"/>
  <path id="Path_63" data-name="Path 63" d="M798.854,510.427l-11.167,3.986a.711.711,0,0,1-.478-1.34l11.167-3.986a.711.711,0,1,1,.478,1.34Z" transform="translate(-615.454 -424.346)" fill="#f8c49a"/>
  <path id="Path_64" data-name="Path 64" d="M785.718,508.519l-2.457.877a.711.711,0,1,1-.478-1.34l2.457-.877a.711.711,0,1,1,.478,1.34Z" transform="translate(-612.34 -422.726)" fill="#f8c49a"/>
  <path id="Path_65" data-name="Path 65" d="M805.948,530.3l-11.167,3.986a.711.711,0,1,1-.478-1.34l11.167-3.986a.711.711,0,0,1,.478,1.34Z" transform="translate(-620.445 -438.953)" fill="#f8c49a"/>
  <path id="Path_66" data-name="Path 66" d="M802.4,520.365l-11.167,3.986a.711.711,0,1,1-.478-1.34l11.167-3.986a.711.711,0,1,1,.478,1.34Z" transform="translate(-617.95 -431.65)" fill="#f8c49a"/>
  <circle id="Ellipse_11" data-name="Ellipse 11" cx="2.964" cy="2.964" r="2.964" transform="translate(161.989 78.1)" fill="#f8c49a"/>
  <path id="Path_68" data-name="Path 68" d="M505.068,225.807a36.676,36.676,0,0,1,12.542-19.789,1.791,1.791,0,0,1,2.468-.553l14.945,9.472a1.791,1.791,0,0,1,.553,2.468l-12.542,19.789a1.791,1.791,0,0,1-2.468.553l-14.945-9.472a1.791,1.791,0,0,1-.553-2.468Z" transform="translate(-417.076 -200.545)" fill="#e6e6e6"/>
  <path id="Path_69" data-name="Path 69" d="M519.629,224.993c.522-4.153,3.918-8.422,8.063-12.722a1.677,1.677,0,0,1,2.311-.518l12.844,8.141a1.677,1.677,0,0,1,.518,2.312L532.2,239.815a1.677,1.677,0,0,1-2.312.518l-7.956-5.043A7.47,7.47,0,0,1,519.629,224.993Z" transform="translate(-426.702 -204.981)" fill="#fff"/>
  <path id="Path_70" data-name="Path 70" d="M550.163,252.088l-10.032-6.32a.711.711,0,1,1,.758-1.2l10.032,6.32a.711.711,0,1,1-.758,1.2Z" transform="translate(-441.708 -228.173)" fill="#f8c49a"/>
  <path id="Path_71" data-name="Path 71" d="M549.354,236.021l-2.207-1.39a.711.711,0,0,1,.758-1.2l2.207,1.39a.711.711,0,1,1-.758,1.2Z" transform="translate(-446.644 -220.337)" fill="#f8c49a"/>
  <path id="Path_72" data-name="Path 72" d="M538.915,269.945l-10.032-6.32a.711.711,0,1,1,.758-1.2l10.032,6.32a.711.711,0,0,1-.758,1.2Z" transform="translate(-433.793 -243.056)" fill="#f8c49a"/>
  <path id="Path_73" data-name="Path 73" d="M544.539,261.017l-10.032-6.32a.711.711,0,1,1,.758-1.2l10.032,6.32a.711.711,0,0,1-.758,1.2Z" transform="translate(-437.751 -234.455)" fill="#f8c49a"/>
  <circle id="Ellipse_12" data-name="Ellipse 12" cx="2.964" cy="2.964" r="2.964" transform="translate(114.565 12.674)" fill="#f8c49a"/>
  <path id="Path_74" data-name="Path 74" d="M440.843,364.788H409.461a.677.677,0,0,1,0-1.353h31.382a.677.677,0,0,1,0,1.353Z" transform="translate(-349.526 -317.179)" fill="#f8c49a"/>
  <path id="Path_75" data-name="Path 75" d="M456.729,385.662H409.462a.677.677,0,0,1,0-1.353h47.267a.677.677,0,1,1,0,1.353Z" transform="translate(-349.526 -332.501)" fill="#f2f2f2"/>
  <path id="Path_76" data-name="Path 76" d="M456.726,405.179H409.457a.677.677,0,1,0,0,1.355h47.269a.677.677,0,0,0,0-1.355Z" transform="translate(-349.522 -347.821)" fill="#f2f2f2"/>
  <path id="Path_77" data-name="Path 77" d="M456.729,427.41H409.462a.677.677,0,0,1,0-1.354h47.267a.677.677,0,1,1,0,1.354Z" transform="translate(-349.526 -363.146)" fill="#f2f2f2"/>
  <path id="Path_78" data-name="Path 78" d="M275.42,452.764l1.783-14.673-4.853-.349-1.089,15.386a2.424,2.424,0,1,0,4.159-.364Z" transform="translate(-243.486 -386.625)" fill="#a0616a"/>
  <path id="Path_79" data-name="Path 79" d="M280.167,383.1h0a4.078,4.078,0,0,0-4.341,2.533c-2.04,5.128-5.975,15.189-5.761,15.972.288,1.054.575,1.15-.191,1.534s-1.821-.287-.767.384-.287.863.192,1.342,8.436,1.532,8.436,1.532-1.757-5.343-1.167-6.122,2.508.179,1.549-.78-1.851-1.223-.734-1.666,2.1-.932,2.1-.932l3.82-7.994a4.081,4.081,0,0,0-3.132-5.8Z" transform="translate(-242.002 -350.165)" fill="#ccc"/>
  <path id="Path_80" data-name="Path 80" d="M121.629,445.118h2.65l1.26-10.221h-3.911Z" transform="translate(-76.489 -322.337)" fill="#a0616a"/>
  <path id="Path_81" data-name="Path 81" d="M318.2,651.945h8.149v-.1a3.172,3.172,0,0,0-3.171-3.172h0l-1.488-1.129-2.777,1.129H318.2Z" transform="translate(-273.156 -526.4)" fill="#2f2e41"/>
  <path id="Path_82" data-name="Path 82" d="M6.9,407.772l1.084,2.418,9.842-3.032-1.6-3.568Z" transform="translate(-4.339 -302.648)" fill="#a0616a"/>
  <path id="Path_83" data-name="Path 83" d="M196.824,604.929l3.334,7.435.094-.042a3.172,3.172,0,0,0,1.6-4.192h0l.421-1.82-2.167-2.072-.291-.649Z" transform="translate(-196.824 -498.759)" fill="#2f2e41"/>
  <ellipse id="Ellipse_13" data-name="Ellipse 13" cx="5.054" cy="5.054" rx="5.054" ry="5.054" transform="translate(37.513 19.011)" fill="#a0616a"/>
  <path id="Path_84" data-name="Path 84" d="M259.7,477.925l-19.1-.606s-4.041,7.82-1.566,12.7.516,18.709.516,18.709l-24.716,12.544,2.122,4.85s5.456-.3,6.366-1.213a4.9,4.9,0,0,1,3.031-1.213c.606,0,18.491-7.881,18.491-7.881l4.647-13.462,4.715,18.388-2.312,16.34,5.519.145s1.9-.957,1.337-2.393-.86-2.062.5-3.265,3.991-19.42,3.991-19.42l-3.122-21.02s-1.859-.523-.288-1.942-.034-3.112-.034-3.112,1.329-1.879-.017-1.578-.079-7.18-.079-7.18" transform="translate(-208.151 -419.351)" fill="#2f2e41"/>
  <path id="Path_85" data-name="Path 85" d="M294.8,374.659l-7.051-.437-1.233,2.041s-2.776-.155-2.17.754.254.165-.631.84-2.08.8-1.482,1.342c.087.08.052.315-.072.66a39,39,0,0,0-1.737,20.7,21.418,21.418,0,0,1,.588,3.74c-.3.3-1.819,0-.909.909s2.425,0,.606,1.819-5.638,9.521-1.212,10,20.916-.606,20.613-1.819l-2.122-8.488L296.26,382.3l-1.731-4.664Z" transform="translate(-247.521 -345.368)" fill="#ccc"/>
  <path id="Path_86" data-name="Path 86" d="M312.233,466.284,309.287,451.8l-4.715,1.2,3.83,14.941a2.424,2.424,0,1,0,3.83-1.66Z" transform="translate(-264.585 -396.058)" fill="#a0616a"/>
  <path id="Path_87" data-name="Path 87" d="M303.379,395.216h0a4.078,4.078,0,0,0-3.317,3.775c-.315,5.51-.868,16.3-.417,16.974.606.909.909.909.3,1.516s-1.819.3-.606.606,0,.909.606,1.213,8.488-1.213,8.488-1.213-3.356-4.514-3.042-5.44,2.436-.623,1.223-1.229-2.143-.575-1.223-1.349,1.694-1.547,1.694-1.547l1.1-8.791a4.081,4.081,0,0,0-4.806-4.515Z" transform="translate(-260.968 -358.338)" fill="#ccc"/>
  <path id="Path_88" data-name="Path 88" d="M298.641,342.993a10.555,10.555,0,0,1-2.056,1.225,3.546,3.546,0,0,1-2.344.194,2.677,2.677,0,0,1-1.7-1.614c-.278-.761-2.6-1.65-2.166-2.332a3.845,3.845,0,0,0,.543-.891.676.676,0,0,0-.359-.865.631.631,0,0,0-.676.389,1.841,1.841,0,0,0-.105.832,1.354,1.354,0,0,1-.371-1.581l-.786-.395c.679-.264,3.261-1.335,2.687-1.783-.486-.379-2.048-1.611-1.874-2.055a3.691,3.691,0,0,1,.842-1.145,4.922,4.922,0,0,1,2.376-1.648,5.261,5.261,0,0,1,2.465.319,4.1,4.1,0,0,0,2.465.147,1.527,1.527,0,0,0,.992-1.977,1.576,1.576,0,0,1,1.441.907l.135-1.243a3.977,3.977,0,0,1,1.626.87,1.363,1.363,0,0,1,.238,1.694c-.416.548-1.345.611-1.591,1.253-.216.564.252,1.134.643,1.594s.732,1.175.322,1.618c-.339.367-.935.25-1.418.375a1.951,1.951,0,0,0-1.273,1.705,9.224,9.224,0,0,0,.168,2.247,3.276,3.276,0,0,1-.333,2.188" transform="translate(-254.552 -313.84)" fill="#2f2e41"/>
  <path id="Path_89" data-name="Path 89" d="M322.6,350.071h0c-.584,0-1.231-.226-1.231-.81v-3.707c0-.584.647-.513,1.231-.513h0c1.455-.975,2.688.447,2.737,2.367h0C325.324,349.479,324.185,350.8,322.6,350.071Z" transform="translate(-273.775 -324.295)" fill="#3f3d56"/>
  <path id="Path_90" data-name="Path 90" d="M305.188,344.18h-1.863c-.623,0-3.07-.043-3.193.544-3.288-.582-4.58-.6-6.49.484a.856.856,0,0,0,0,1.712l6.071-.1,2.318,1.887A1.294,1.294,0,0,0,303.324,350h1.863a1.294,1.294,0,0,0,1.294-1.294,2.934,2.934,0,0,1,0-3.233A1.294,1.294,0,0,0,305.188,344.18Z" transform="translate(-257.172 -323.963)" fill="#f8c49a"/>
  <text id="AR" transform="translate(16.046 26.164) rotate(-16)" fill="#000a2d" font-size="8" font-family="ComicSansMS, Comic Sans MS"><tspan x="-5" y="0">AR</tspan></text>
  <text id="VR" transform="matrix(0.899, 0.438, -0.438, 0.899, 70.761, 29.376)" fill="#000a2d" font-size="8" font-family="ComicSansMS, Comic Sans MS"><tspan x="-5" y="0">VR</tspan></text>
</svg>
