<svg xmlns="http://www.w3.org/2000/svg" width="17.749" height="17.749" viewBox="0 0 17.749 17.749">
  <path id="AR_button_icon" data-name="AR button icon" d="M10.229,17.187l-4.437-2.6a1.1,1.1,0,0,1-.434-.444,1.262,1.262,0,0,1-.151-.605V8.353a1.262,1.262,0,0,1,.151-.605A1.1,1.1,0,0,1,5.792,7.3l4.457-2.642a1.292,1.292,0,0,1,1.25,0L15.957,7.3a1.1,1.1,0,0,1,.434.444,1.262,1.262,0,0,1,.151.605v5.183a1.2,1.2,0,0,1-.161.605,1.172,1.172,0,0,1-.444.444l-4.5,2.6a1.215,1.215,0,0,1-1.21,0Zm.04-1.392V11.278l-3.832-2.2V13.5Zm1.21,0,3.852-2.3V9.079l-3.852,2.2ZM2,5.812V4.259A2.238,2.238,0,0,1,4.259,2H5.812V3.21H4.259A1.033,1.033,0,0,0,3.21,4.259V5.812ZM4.259,19.749A2.238,2.238,0,0,1,2,17.49V15.937H3.21V17.49a1.033,1.033,0,0,0,1.049,1.049H5.812v1.21Zm11.678-.081v-1.21H17.49a1.033,1.033,0,0,0,1.049-1.049V15.856h1.21v1.553a2.238,2.238,0,0,1-2.259,2.259Zm2.6-13.856V4.259A1.033,1.033,0,0,0,17.49,3.21H15.937V2H17.49a2.238,2.238,0,0,1,2.259,2.259V5.812Zm-7.664,4.377L14.706,7.97l-3.832-2.2L7.042,7.97ZM10.874,10.693ZM10.874,10.189ZM11.479,11.278ZM10.269,11.278Z" transform="translate(-2 -2)" fill="#fff"/>
</svg>
