<svg xmlns="http://www.w3.org/2000/svg" width="245.926" height="165.705" viewBox="0 0 245.926 165.705">
  <g id="undraw_portfolio_update_re_jqnp" transform="translate(-65 0)">
    <path id="Path_165" data-name="Path 165" d="M662.207,266.327H428.421a3.224,3.224,0,0,0-3.36,3.06V413.644a3.224,3.224,0,0,0,3.36,3.06H662.207a3.224,3.224,0,0,0,3.361-3.06V269.387A3.224,3.224,0,0,0,662.207,266.327Zm2.4,147.316a2.3,2.3,0,0,1-2.4,2.186H428.421a2.3,2.3,0,0,1-2.4-2.186V269.387a2.3,2.3,0,0,1,2.4-2.186H662.207a2.3,2.3,0,0,1,2.4,2.186Z" transform="translate(-354.642 -266.327)" fill="#3f3d56"/>
    <rect id="Rectangle_94" data-name="Rectangle 94" width="239.621" height="0.886" transform="translate(70.862 12.416)" fill="#3f3d56"/>
    <ellipse id="Ellipse_23" data-name="Ellipse 23" cx="2.657" cy="2.657" rx="2.657" ry="2.657" transform="translate(75.733 3.985)" fill="#3f3d56"/>
    <ellipse id="Ellipse_24" data-name="Ellipse 24" cx="2.657" cy="2.657" rx="2.657" ry="2.657" transform="translate(83.371 3.985)" fill="#3f3d56"/>
    <ellipse id="Ellipse_25" data-name="Ellipse 25" cx="2.657" cy="2.657" rx="2.657" ry="2.657" transform="translate(91.009 3.985)" fill="#3f3d56"/>
    <path id="Path_166" data-name="Path 166" d="M506.813,335.327H469.99a2.932,2.932,0,0,0-2.929,2.929V375.08a2.932,2.932,0,0,0,2.929,2.929h36.823a2.932,2.932,0,0,0,2.929-2.929V338.257A2.932,2.932,0,0,0,506.813,335.327Zm2.092,39.752a2.093,2.093,0,0,1-2.092,2.092H469.99a2.093,2.093,0,0,1-2.092-2.092V338.257a2.093,2.093,0,0,1,2.092-2.092h36.823a2.093,2.093,0,0,1,2.092,2.092Z" transform="translate(-295.067 -309.939)" fill="#3f3d56"/>
    <path id="Path_167" data-name="Path 167" d="M665.1,335.827H628.281a2.725,2.725,0,0,0-2.72,2.72v36.823a2.725,2.725,0,0,0,2.72,2.72H665.1a2.725,2.725,0,0,0,2.72-2.72V338.547A2.725,2.725,0,0,0,665.1,335.827Z" transform="translate(-526.696 -310.244)" fill="#e6e6e6"/>
    <path id="Path_168" data-name="Path 168" d="M823.1,335.827H786.281a2.725,2.725,0,0,0-2.72,2.72v36.823a2.725,2.725,0,0,0,2.72,2.72H823.1a2.725,2.725,0,0,0,2.72-2.72V338.547A2.725,2.725,0,0,0,823.1,335.827Z" transform="translate(-533.492 -310.244)" fill="#e6e6e6"/>
    <path id="Path_169" data-name="Path 169" d="M507.1,467.827H470.281a2.725,2.725,0,0,0-2.72,2.72v36.823a2.725,2.725,0,0,0,2.72,2.72H507.1a2.725,2.725,0,0,0,2.72-2.72V470.547A2.725,2.725,0,0,0,507.1,467.827Z" transform="translate(-370.98 -393.655)" fill="#f8c49a"/>
    <path id="Path_170" data-name="Path 170" d="M665.1,467.827H628.281a2.725,2.725,0,0,0-2.72,2.72v36.823a2.725,2.725,0,0,0,2.72,2.72H665.1a2.725,2.725,0,0,0,2.72-2.72V470.547A2.725,2.725,0,0,0,665.1,467.827Z" transform="translate(-452.128 -393.655)" fill="#e6e6e6"/>
    <path id="Path_171" data-name="Path 171" d="M823.1,467.827H786.281a2.725,2.725,0,0,0-2.72,2.72v36.823a2.725,2.725,0,0,0,2.72,2.72H823.1a2.725,2.725,0,0,0,2.72-2.72V470.547A2.725,2.725,0,0,0,823.1,467.827Z" transform="translate(-533.492 -393.655)" fill="#f8c49a"/>
    <g id="earrings-svgrepo-com" transform="translate(180.033 81.238)">
      <g id="Group_33" data-name="Group 33" transform="translate(15.473)">
        <g id="Group_32" data-name="Group 32">
          <path id="Path_306" data-name="Path 306" d="M256.264,18.639l-1.391-2.41a.517.517,0,0,0-.9.517l1.042,1.806h-3.177l-1.222-2.117a.523.523,0,0,0-.044-.064l1.592-2.758.892,1.545a.517.517,0,1,0,.9-.517l-1.051-1.821a.864.864,0,0,0-.746-.431h-.983V9.329a.863.863,0,0,0-.862-.862h-1V6.407a3.224,3.224,0,1,0-3.741-3.183.517.517,0,0,0,1.035,0A2.189,2.189,0,1,1,248.8,5.414a.517.517,0,0,0-.517.517V8.467h-1a.863.863,0,0,0-.862.862v3.061h-.983a.864.864,0,0,0-.746.431l-3.358,5.817a.864.864,0,0,0,0,.862l3.358,5.817a.864.864,0,0,0,.746.431h6.717a.864.864,0,0,0,.746-.431l3.358-5.817A.864.864,0,0,0,256.264,18.639Zm-5.318.431-1.073,1.858h-2.145l-1.073-1.858,1.073-1.858h2.145ZM247.461,9.5h2.682v1.03h-2.682Zm0,2.065h2.682v.824h-2.682Zm3.622,1.859-1.588,2.751h-1.4l-1.588-2.751Zm-5.654.2,1.591,2.756a.5.5,0,0,0-.037.056l-1.222,2.117h-3.176Zm0,10.891-2.845-4.928h3.176l1.222,2.117a.517.517,0,0,0,.037.056Zm1.08.2,1.588-2.751h1.4l1.588,2.751Zm5.659-.189-1.592-2.758a.527.527,0,0,0,.044-.064l1.222-2.117h3.176Z" transform="translate(-241.224)" fill="#fff"/>
        </g>
      </g>
      <g id="Group_35" data-name="Group 35" transform="translate(4.354 2.385)">
        <g id="Group_34" data-name="Group 34">
          <path id="Path_307" data-name="Path 307" d="M110.392,122.005a3.228,3.228,0,0,0-3.224,3.224.517.517,0,0,0,1.035,0,2.189,2.189,0,1,1,4.224.809.517.517,0,1,0,.962.382,3.226,3.226,0,0,0-3-4.416Z" transform="translate(-107.168 -122.005)" fill="#fff"/>
        </g>
      </g>
      <g id="Group_37" data-name="Group 37" transform="translate(0 7.433)">
        <g id="Group_36" data-name="Group 36">
          <path id="Path_308" data-name="Path 308" d="M56.262,212.054,52.9,206.237a.864.864,0,0,0-.746-.431h-.983v-3.061a.863.863,0,0,0-.862-.862h-1v-2.06a3.215,3.215,0,0,0,1.1-.394.517.517,0,1,0-.521-.894,2.187,2.187,0,0,1-1.1.3.517.517,0,0,0-.517.517v2.536h-1a.863.863,0,0,0-.862.862v3.061h-.983a.864.864,0,0,0-.746.431l-3.358,5.817a.864.864,0,0,0,0,.861l3.358,5.817a.864.864,0,0,0,.746.431h6.717a.864.864,0,0,0,.746-.431l.6-1.035a.517.517,0,0,0-.9-.517l-.439.76-1.592-2.758a.519.519,0,0,0,.044-.064L51.841,213h3.176l-1.5,2.591a.517.517,0,0,0,.9.517l1.845-3.2A.864.864,0,0,0,56.262,212.054Zm-8.8-9.137H50.14v1.03H47.459Zm0,2.065H50.14v.824H47.459Zm3.622,1.859-1.588,2.751H48.1l-1.588-2.751Zm-5.654.2,1.591,2.756a.511.511,0,0,0-.038.056l-1.222,2.117H42.582Zm0,10.891L42.582,213h3.176l1.222,2.117a.518.518,0,0,0,.037.056Zm5.654.2H46.507l1.588-2.751h1.4Zm.76-6.161-.017-.03a.517.517,0,1,0-.9.517l.017.03-1.073,1.858H47.727l-1.073-1.858,1.073-1.858h2.145l.179.31a.517.517,0,0,0,.9-.517l-.328-.569a.512.512,0,0,0-.044-.064l1.592-2.758,2.851,4.938Z" transform="translate(-41.222 -198.464)" fill="#fff"/>
        </g>
      </g>
    </g>
    <path id="Path_172" data-name="Path 172" d="M485.6,423.591H448.781a2.723,2.723,0,0,1-2.72-2.72V384.047a2.723,2.723,0,0,1,2.72-2.72H485.6a2.723,2.723,0,0,1,2.72,2.72v36.823a2.723,2.723,0,0,1-2.72,2.72Z" transform="translate(-282.915 -338.995)" fill="#f8c49a"/>
    <path id="Path_173" data-name="Path 173" d="M194.678,462.711l4.9-1.505-3.471-19.633-7.238,2.221Z" transform="translate(-44.839 -302.553)" fill="#a0616a"/>
    <path id="Path_174" data-name="Path 174" d="M0,0H16.123V6.229H6.229A6.229,6.229,0,0,1,0,0Z" transform="translate(165.599 160.305) rotate(162.939)" fill="#2f2e41"/>
    <path id="Path_175" data-name="Path 175" d="M102.747,464.857h5.13l2.44-19.788h-7.571Z" transform="translate(5.248 -304.587)" fill="#a0616a"/>
    <path id="Path_176" data-name="Path 176" d="M0,0H16.123V6.229H6.229A6.229,6.229,0,0,1,0,0H0Z" transform="translate(123.017 165.034) rotate(179.997)" fill="#2f2e41"/>
    <path id="Path_177" data-name="Path 177" d="M302.992,474.831a3.834,3.834,0,0,1,.133-5.877l3.978-50.086,8.089,2.021-6.477,48.857a3.855,3.855,0,0,1-5.723,5.085Z" transform="translate(-195.365 -363.614)" fill="#a0616a"/>
    <circle id="Ellipse_26" data-name="Ellipse 26" cx="10.277" cy="10.277" r="10.277" transform="translate(113.547 23.849)" fill="#a0616a"/>
    <path id="Path_178" data-name="Path 178" d="M319.726,395.463a8.7,8.7,0,0,1,.108-10.613c1.63-1.987,4.357-3.578,8.91-3.578a18.668,18.668,0,0,1,16.738,9.624s5.021,9.206,2.092,17.575-2.929,9.206-2.929,9.206L325.4,416S328.643,407.705,319.726,395.463Z" transform="translate(-204.838 -338.729)" fill="#6e7ead"/>
    <path id="Path_179" data-name="Path 179" d="M307.977,409.861l4.147-13.566a6.487,6.487,0,0,1,9.177-3.869h0a6.5,6.5,0,0,1,2.966,8.373L318.994,412.8Z" transform="translate(-199.024 -344.725)" fill="#6e7ead"/>
    <path id="Path_180" data-name="Path 180" d="M334.805,463.272,351.125,547.8l-8.787,2.511L321,494.656l-9.624,56.909-9.206,1.255s-4.038-75.3,13.809-89.129Z" transform="translate(-195.417 -397.744)" fill="#2f2e41"/>
    <path id="Path_181" data-name="Path 181" d="M392.3,439.052a4.4,4.4,0,0,0-.4.565l-20.728,1-3.991-12.185-6.93,3.294,6.523,18.149,25.635-5.013a4.392,4.392,0,1,0-.105-5.814Z" transform="translate(-229.421 -367.709)" fill="#a0616a"/>
    <path id="Path_182" data-name="Path 182" d="M353.252,397.109a6.486,6.486,0,0,1,6.847-7.232h0a6.5,6.5,0,0,1,6.082,6.474v13.112L354.91,411.2Z" transform="translate(-225.328 -343.583)" fill="#6e7ead"/>
    <path id="Path_183" data-name="Path 183" d="M327.815,340.084a2.99,2.99,0,0,1-2.663-3.172,5.245,5.245,0,0,1,2.351-3.8,25.494,25.494,0,0,1,4.1-2.129,8.743,8.743,0,0,0,3.628-2.782,6.158,6.158,0,0,0,.428-5.651,9.067,9.067,0,0,0-3.905-4.278,11.875,11.875,0,0,0-15.737,3.452l-1.761,4.795a7.84,7.84,0,0,0-.976,7.942,10.258,10.258,0,0,0,6.1,5.445,14.978,14.978,0,0,0,8.3.249" transform="translate(-201.73 -295.586)" fill="#2f2e41"/>
    <path id="Path_184" data-name="Path 184" d="M283.079,330.348a6.273,6.273,0,0,0-3.425-2.438,10.764,10.764,0,0,0-14.157,9.625c-.144,2.642.684,5.226,1.17,7.827s.583,5.474-.851,7.7a11.506,11.506,0,0,1-4.712,3.671,9.088,9.088,0,0,1-4.793,1.32c-1.673-.151-3.354-1.476-3.31-3.156a13.414,13.414,0,0,0-1.122,3.8,4.53,4.53,0,0,0,1.162,3.666c1.386,1.338,3.583,1.241,5.488.952,4.125-.625,8.3-1.8,11.56-4.4s5.421-6.894,4.563-10.976a26.98,26.98,0,0,0-1.882-4.866,9.057,9.057,0,0,1-.9-5.073A6.166,6.166,0,0,1,275,333.819a8.2,8.2,0,0,1,5.24-.795c1.171.192,2.634.491,3.328-.472a1.886,1.886,0,0,0-.039-2.012,5.543,5.543,0,0,0-1.5-1.49" transform="translate(-166.386 -302.196)" fill="#2f2e41"/>
    <path id="Path_185" data-name="Path 185" d="M332.023,701.288H203.437a.5.5,0,0,1,0-1H332.023a.5.5,0,1,1,0,1Z" transform="translate(-137.939 -535.583)" fill="#3f3d56"/>
    <path id="Path_163" data-name="Path 163" d="M229.1,669.795c-5.126-.422-9.652-4.13-12.226-8.584-.863-1.493-1.455-3.452-.477-4.874a2.682,2.682,0,0,1,4.735.616,25.965,25.965,0,0,1-.4-5.289c.039-1.5.323-3.2,1.571-4.032,1.448-.968,3.534-.2,4.587,1.188a10.447,10.447,0,0,1,1.591,4.914,4.532,4.532,0,0,1,5.038-5.715,5.909,5.909,0,0,1,4.429,4.2,12.869,12.869,0,0,1,.029,6.363,18.52,18.52,0,0,1-2.712,6.981,9.993,9.993,0,0,1-6.015,4.242Z" transform="translate(-145.471 -504.707)" fill="#f2f2f2"/>
    <g id="diamond-ring-jewelry-svgrepo-com_1_" data-name="diamond-ring-jewelry-svgrepo-com (1)" transform="translate(259.374 80.247)">
      <g id="ring" transform="translate(0)">
        <g id="Group_38" data-name="Group 38">
          <path id="Path_309" data-name="Path 309" d="M71.773,93.3a9.573,9.573,0,1,0,9.573,9.573A9.583,9.583,0,0,0,71.773,93.3Zm0,18.082a8.509,8.509,0,1,1,8.509-8.509A8.519,8.519,0,0,1,71.773,111.382Z" transform="translate(-59.009 -83.727)" fill="#fff"/>
          <path id="Path_310" data-name="Path 310" d="M48.848,7.707l1.873-3.747c0-.007.006-.015.009-.023s.011-.024.015-.036.007-.022.01-.033.006-.022.009-.033,0-.023.006-.035,0-.023,0-.034,0-.021,0-.031,0-.026,0-.039,0-.016,0-.023,0-.031-.006-.046l0-.012a.522.522,0,0,0-.028-.09c0-.008-.006-.017-.01-.024l-.012-.023c-.007-.014-.015-.028-.024-.042l0-.007L48.561.237A.532.532,0,0,0,48.118,0H39.609a.532.532,0,0,0-.442.237L37.039,3.428l0,.007c-.009.013-.016.027-.024.042L37,3.5c0,.008-.007.017-.01.025a.52.52,0,0,0-.028.089s0,.008,0,.012,0,.031-.006.046,0,.016,0,.024,0,.026,0,.039,0,.021,0,.031,0,.023,0,.034,0,.023.006.035.006.022.009.033.006.022.01.034.01.024.015.036.006.015.01.023l1.873,3.747A12.639,12.639,0,0,0,31.1,19.145a12.764,12.764,0,1,0,25.527,0A12.639,12.639,0,0,0,48.848,7.707Zm-1.058-.262h-2l.747-1.493.849-1.7h2ZM45.771,3.191H41.957l1.907-1.907ZM43.129,7.445l-1.6-3.191h4.661l-.747,1.493-.849,1.7Zm4.7-6.382,1.418,2.127H47.275L45.147,1.064h2.686Zm-7.94,0H42.58L40.452,3.191H38.475Zm.45,3.191.849,1.7.747,1.493h-2l-1.6-3.191Zm3.52,26.591a11.7,11.7,0,0,1-11.7-11.7A11.627,11.627,0,0,1,39.712,8.509h8.3a11.627,11.627,0,0,1,7.548,10.636A11.7,11.7,0,0,1,43.864,30.845Z" transform="translate(-31.1)" fill="#fff"/>
        </g>
      </g>
    </g>
    <path id="Icon_map-jewelry-store" data-name="Icon map-jewelry-store" d="M28.375,13.5l-.008-.061a.764.764,0,0,0-.076-.218L24.479,7.082s-.486-.6-.6-.6H7.634L2.749,13.009l-.058.06-.008.028a1.071,1.071,0,0,0-.1.211l-.02.058a.948.948,0,0,0,.008.572L2.593,14a1.014,1.014,0,0,0,.113.212l11.81,14.96.024.034a1.022,1.022,0,0,0,.225.211l.069.043a1.216,1.216,0,0,0,.24.113l.067.022a1.16,1.16,0,0,0,.641,0l.08-.028a1.171,1.171,0,0,0,.233-.114l.053-.033a.936.936,0,0,0,.2-.189L28.177,14.255a1.051,1.051,0,0,0,.2-.475l.009-.078,0-.061-.014-.144Zm-6.341-.4,1.683-3.046L25.4,13.1Zm-1.009,1.8h3.993l-6.656,8.431Zm-.988-2.718-2.431-3.3h4.253ZM12.25,14.9h6.413L15.455,25.056Zm.636-1.8,2.569-3.487L18.024,13.1H12.885Zm-1.81-1.186L9.962,8.886H13.3Zm1.473,11.423L5.892,14.9H9.886ZM8.034,10.073,9.149,13.1H5.805l2.229-3.025Z" transform="translate(167.983 46.366)" fill="#fff"/>
    <g id="jewelry-set-svgrepo-com" transform="translate(257.059 30.375)">
      <path id="Path_313" data-name="Path 313" d="M107.569,64.34a1.616,1.616,0,0,0-.362-1.019,1.617,1.617,0,0,0,.009-2.358,1.62,1.62,0,0,0-.319-2.355,1.617,1.617,0,0,0-.653-2.288,1.622,1.622,0,0,0-.98-2.166,1.615,1.615,0,0,0-1.3-2c.005-.051.008-.1.008-.156a1.625,1.625,0,0,0-1.6-1.623,1.62,1.62,0,0,0-2.56-1.223,12.92,12.92,0,0,0-6.439-2.04v-.09a.519.519,0,1,0-1.037,0v.09a12.92,12.92,0,0,0-6.439,2.04,1.62,1.62,0,0,0-2.56,1.223,1.625,1.625,0,0,0-1.6,1.623c0,.053,0,.1.008.156a1.615,1.615,0,0,0-1.3,2,1.622,1.622,0,0,0-.98,2.166,1.617,1.617,0,0,0-.653,2.288,1.62,1.62,0,0,0-.319,2.355,1.617,1.617,0,0,0,.01,2.359,1.618,1.618,0,0,0,.274,2.305,1.986,1.986,0,0,0,.865,3.087,2.358,2.358,0,0,0,1.978,3.52,2.685,2.685,0,0,0,3.463,3.313,2.924,2.924,0,0,0,4.933,2.115,3.052,3.052,0,0,0,5.674,0,2.924,2.924,0,0,0,4.933-2.115,2.686,2.686,0,0,0,3.463-3.313,2.358,2.358,0,0,0,1.978-3.52,1.986,1.986,0,0,0,.866-3.087A1.621,1.621,0,0,0,107.569,64.34Zm-1.624.587a.592.592,0,0,1-.114-.011c-.021-.005-.042-.012-.064-.017a.587.587,0,1,1,.178.028Zm-2.572,1.924a1.978,1.978,0,0,0,.136.718,2.36,2.36,0,0,0-1.811,2.766c-.059,0-.118-.007-.178-.007a2.689,2.689,0,0,0-2.68,2.51,2.926,2.926,0,0,0-3.827,1.536,3.049,3.049,0,0,0-4.312,0,2.926,2.926,0,0,0-3.827-1.537,2.689,2.689,0,0,0-2.68-2.51c-.06,0-.119,0-.178.007A2.36,2.36,0,0,0,82.2,67.569a1.982,1.982,0,0,0-.984-2.506,1.613,1.613,0,0,0-.344-1.906,1.619,1.619,0,0,0-.008-2.049,1.613,1.613,0,0,0,.269-2.016,1.62,1.62,0,0,0,.562-1.953,1.611,1.611,0,0,0,.837-1.852,1.626,1.626,0,0,0,1.107-1.538c0-.053,0-.1-.008-.156a1.624,1.624,0,0,0,1.344-1.5,1.623,1.623,0,0,0,1.53-2.1,11.885,11.885,0,0,1,5.833-1.842.516.516,0,0,0,1.029,0A11.882,11.882,0,0,1,99.2,49.989a1.623,1.623,0,0,0,1.53,2.1,1.625,1.625,0,0,0,1.344,1.5c0,.051-.008.1-.008.156a1.625,1.625,0,0,0,1.107,1.538,1.611,1.611,0,0,0,.837,1.852,1.62,1.62,0,0,0,.562,1.953,1.613,1.613,0,0,0,.269,2.016,1.619,1.619,0,0,0-.008,2.049,1.613,1.613,0,0,0-.344,1.906A1.993,1.993,0,0,0,103.373,66.852Zm-23.49-1.935a.587.587,0,1,1,.064-.016C79.925,64.9,79.9,64.911,79.883,64.916Zm.906-7.149a.587.587,0,1,1-.587-.587A.588.588,0,0,1,80.789,57.767Zm-1.037,1.579a.587.587,0,1,1-.587.587A.587.587,0,0,1,79.752,59.346Zm-.137,2.2a.587.587,0,1,1-.587.587A.587.587,0,0,1,79.615,61.551ZM106.1,62.724a.587.587,0,1,1,.587-.587A.587.587,0,0,1,106.1,62.724Zm-.724-2.792a.587.587,0,1,1,.587.587A.587.587,0,0,1,105.375,59.933Zm.136-1.579a.587.587,0,1,1,.587-.587A.587.587,0,0,1,105.511,58.354Zm-.763-2.075a.587.587,0,1,1,.587-.587A.588.588,0,0,1,104.748,56.279Zm-.467-2.53a.587.587,0,1,1-.587-.587A.587.587,0,0,1,104.281,53.749Zm-1.341-1.755a.587.587,0,1,1-.587-.587A.587.587,0,0,1,102.94,51.994Zm-1.6-1.525a.587.587,0,1,1-.587-.587A.588.588,0,0,1,101.342,50.469Zm-16.384-.587a.587.587,0,1,1-.587.587A.587.587,0,0,1,84.958,49.883Zm-1.6,1.525a.587.587,0,1,1-.587.587A.587.587,0,0,1,83.361,51.407ZM82.02,53.162a.587.587,0,1,1-.587.587A.587.587,0,0,1,82.02,53.162Zm-1.054,1.943a.587.587,0,1,1-.587.587A.587.587,0,0,1,80.966,55.105Zm-.874,10.827c.023,0,.045-.011.068-.017a.955.955,0,0,1,.638,1.779c-.039.016-.077.033-.115.051a.954.954,0,1,1-.591-1.813Zm.284,3.943a1.324,1.324,0,0,1,.735-1.184c.029-.012.057-.027.086-.04a1.323,1.323,0,1,1-.821,1.224Zm2.169,3.139a1.649,1.649,0,1,1,1.649,1.649A1.651,1.651,0,0,1,82.545,73.015Zm5.469,4.409a1.89,1.89,0,1,1,1.89-1.89A1.892,1.892,0,0,1,88.014,77.423Zm4.843,1.128a2.016,2.016,0,1,1,2.016-2.016A2.019,2.019,0,0,1,92.857,78.551ZM97.7,77.423a1.89,1.89,0,1,1,1.89-1.89A1.892,1.892,0,0,1,97.7,77.423Zm3.82-2.76a1.649,1.649,0,1,1,1.649-1.649A1.651,1.651,0,0,1,101.52,74.663Zm2.494-3.464a1.324,1.324,0,1,1,.5-2.548c.028.013.056.028.085.04a1.323,1.323,0,0,1-.588,2.508Zm1.352-3.392a.95.95,0,0,1-.335-.062c-.037-.018-.076-.035-.114-.051a.955.955,0,0,1,.637-1.779c.023.006.045.012.068.017a.955.955,0,0,1-.256,1.875Z" transform="translate(-77.991 -46.5)" fill="#fff"/>
    </g>
  </g>
</svg>
