<svg xmlns="http://www.w3.org/2000/svg" width="305.226" height="163.973" viewBox="0 0 305.226 163.973">
  <g id="undraw_posting_photo_re_plk8" transform="translate(3.874 6.944)">
    <path id="Path_263" data-name="Path 263" d="M278.12,391.355h-.569V374.616c0-5.351-4.042-9.688-9.027-9.688H235.478c-4.986,0-9.027,4.338-9.027,9.688v91.833c0,5.351,4.042,9.688,9.027,9.688h33.045c4.986,0,9.027-4.338,9.027-9.688V403.271h.569Z" transform="translate(-201.21 -320.07)" fill="#e5e5e5"/>
    <path id="Path_264" data-name="Path 264" d="M273.931,372.032h-4.314a3.654,3.654,0,0,1-.307,3.216,3.149,3.149,0,0,1-2.658,1.52H247.721a3.15,3.15,0,0,1-2.658-1.52,3.654,3.654,0,0,1-.307-3.216h-4.029a7,7,0,0,0-6.742,7.235v91.7a7,7,0,0,0,6.742,7.235h33.2a7,7,0,0,0,6.742-7.235h0v-91.7A7,7,0,0,0,273.931,372.032Z" transform="translate(-206.254 -324.654)" fill="#fff"/>
    <rect id="Rectangle_178" data-name="Rectangle 178" width="29.886" height="21.638" transform="translate(36.867 85.949)" fill="#fff"/>
    <path id="Path_265" data-name="Path 265" d="M291.382,502.275H261.307V480.428h30.075Zm-29.869-.221h29.663V480.649H261.513Z" transform="translate(-224.395 -394.55)" fill="#3f3d56"/>
    <path id="Path_266" data-name="Path 266" d="M269.258,500.756h24.835V485.578H269.258Z" transform="translate(-229.866 -397.913)" fill="#f8c49a"/>
    <path id="Path_268" data-name="Path 268" d="M167.945,302.331h-3.979l1.953-3.045.141-.219.07-.11.177.329Z" transform="translate(-112.222 -197.196)" opacity="0.2" style="mix-blend-mode: normal;isolation: isolate"/>
    <path id="Path_269" data-name="Path 269" d="M313.666,513.317H303.585l1.954-3.045.141-.219,2.546-3.969a.5.5,0,0,1,.372-.207.5.5,0,0,1,.393.158.488.488,0,0,1,.037.049Z" transform="translate(-251.453 -408.183)" fill="#3f3d56"/>
    <g id="jewelry-set-svgrepo-com" transform="translate(36.955 88.15)">
      <path id="Path_311" data-name="Path 311" d="M2.186,27.208a.191.191,0,0,0-.117-.342H1.921V25.728a.413.413,0,0,0-.412-.412.253.253,0,1,1,0-.507.274.274,0,0,1,.183.076.39.39,0,0,0,.577.093.191.191,0,0,0-.228-.308l-.018.012A.156.156,0,0,1,2,24.654a.644.644,0,0,0-.49-.228.636.636,0,0,0,0,1.272.03.03,0,0,1,.03.03v1.138H1.389a.191.191,0,0,0-.117.342.708.708,0,1,0,.913,0Zm-.457.867a.326.326,0,1,1,.326-.326A.326.326,0,0,1,1.729,28.074Z" transform="translate(15.921 -22.491)" fill="#fff"/>
      <path id="Path_312" data-name="Path 312" d="M51.018,3.323a.707.707,0,0,0-.252-.541.191.191,0,0,0-.117-.342H50.5V1.3A.413.413,0,0,0,50.088.89a.253.253,0,1,1,0-.507.275.275,0,0,1,.183.076.39.39,0,0,0,.577.093.191.191,0,1,0-.228-.308L50.6.256a.159.159,0,0,1-.026-.028A.647.647,0,0,0,50.088,0a.636.636,0,0,0,0,1.272.03.03,0,0,1,.03.03V2.44h-.149a.191.191,0,0,0-.117.342.708.708,0,1,0,1.165.541Zm-.708.326a.326.326,0,1,1,.326-.326A.326.326,0,0,1,50.309,3.648Z" transform="translate(-30.8 1)" fill="#fff"/>
      <path id="Path_313" data-name="Path 313" d="M88.9,53.082a.6.6,0,0,0-.133-.376.6.6,0,0,0,0-.87.6.6,0,0,0-.118-.869.6.6,0,0,0-.241-.844.6.6,0,0,0-.362-.8.6.6,0,0,0-.478-.739c0-.019,0-.038,0-.058a.6.6,0,0,0-.591-.6.6.6,0,0,0-.945-.451,4.767,4.767,0,0,0-2.376-.753v-.033a.191.191,0,1,0-.383,0v.033a4.767,4.767,0,0,0-2.376.753.6.6,0,0,0-.945.451.6.6,0,0,0-.591.6c0,.019,0,.039,0,.058a.6.6,0,0,0-.478.739.6.6,0,0,0-.362.8.6.6,0,0,0-.241.844.6.6,0,0,0-.118.869.6.6,0,0,0,0,.87.6.6,0,0,0,.1.851A.733.733,0,0,0,78.6,54.7a.87.87,0,0,0,.73,1.3.991.991,0,0,0,1.278,1.222,1.079,1.079,0,0,0,1.82.78,1.126,1.126,0,0,0,2.093,0,1.079,1.079,0,0,0,1.82-.78.991.991,0,0,0,1.278-1.222.87.87,0,0,0,.73-1.3.733.733,0,0,0,.319-1.139A.6.6,0,0,0,88.9,53.082Zm-.6.217a.218.218,0,0,1-.042,0l-.024-.006a.216.216,0,1,1,.066.01Zm-.949.71a.73.73,0,0,0,.05.265.871.871,0,0,0-.668,1.02l-.066,0a.992.992,0,0,0-.989.926,1.08,1.08,0,0,0-1.412.567,1.125,1.125,0,0,0-1.591,0,1.08,1.08,0,0,0-1.412-.567.992.992,0,0,0-.989-.926l-.066,0a.871.871,0,0,0-.668-1.02.731.731,0,0,0-.363-.925.6.6,0,0,0-.127-.7.6.6,0,0,0,0-.756.6.6,0,0,0,.1-.744.6.6,0,0,0,.207-.721.595.595,0,0,0,.309-.683.6.6,0,0,0,.408-.567c0-.019,0-.039,0-.058a.6.6,0,0,0,.5-.554.6.6,0,0,0,.564-.776,4.385,4.385,0,0,1,2.152-.68.19.19,0,0,0,.38,0,4.384,4.384,0,0,1,2.152.68.6.6,0,0,0,.564.776.6.6,0,0,0,.5.554c0,.019,0,.038,0,.058a.6.6,0,0,0,.409.567.594.594,0,0,0,.309.683.6.6,0,0,0,.207.721.6.6,0,0,0,.1.744.6.6,0,0,0,0,.756.6.6,0,0,0-.127.7A.735.735,0,0,0,87.356,54.009Zm-8.667-.714a.216.216,0,1,1,.023-.006Zm.334-2.638a.217.217,0,1,1-.217-.216A.217.217,0,0,1,79.023,50.657Zm-.383.583a.217.217,0,1,1-.217.217A.217.217,0,0,1,78.641,51.24Zm-.05.813a.217.217,0,1,1-.217.217A.217.217,0,0,1,78.59,52.053Zm9.772.433a.217.217,0,1,1,.217-.217A.217.217,0,0,1,88.362,52.486Zm-.267-1.03a.216.216,0,1,1,.217.217A.217.217,0,0,1,88.095,51.456Zm.05-.583a.217.217,0,1,1,.217-.217A.217.217,0,0,1,88.145,50.874Zm-.282-.766a.217.217,0,1,1,.216-.217A.217.217,0,0,1,87.863,50.108Zm-.172-.933a.217.217,0,1,1-.217-.217A.217.217,0,0,1,87.691,49.175Zm-.495-.648a.217.217,0,1,1-.217-.217A.217.217,0,0,1,87.2,48.527Zm-.589-.563a.217.217,0,1,1-.217-.216A.217.217,0,0,1,86.607,47.965Zm-6.045-.216a.216.216,0,1,1-.217.216A.217.217,0,0,1,80.562,47.748Zm-.589.563a.217.217,0,1,1-.217.217A.217.217,0,0,1,79.972,48.311Zm-.495.648a.216.216,0,1,1-.217.217A.217.217,0,0,1,79.477,48.958Zm-.389.717a.217.217,0,1,1-.217.217A.217.217,0,0,1,79.089,49.675Zm-.322,3.995.025-.006a.352.352,0,0,1,.235.656l-.042.019a.352.352,0,1,1-.218-.669Zm.1,1.455a.489.489,0,0,1,.271-.437l.032-.015a.488.488,0,1,1-.3.452Zm.8,1.158a.608.608,0,1,1,.608.608A.609.609,0,0,1,79.671,56.283Zm2.018,1.627a.7.7,0,1,1,.7-.7A.7.7,0,0,1,81.689,57.91Zm1.787.416a.744.744,0,1,1,.744-.744A.745.745,0,0,1,83.476,58.326Zm1.787-.416a.7.7,0,1,1,.7-.7A.7.7,0,0,1,85.263,57.91Zm1.409-1.018a.608.608,0,1,1,.608-.608A.609.609,0,0,1,86.672,56.891Zm.92-1.278a.488.488,0,1,1,.186-.94l.031.015a.488.488,0,0,1-.217.925Zm.5-1.252a.351.351,0,0,1-.124-.023l-.042-.019a.352.352,0,0,1,.235-.656l.025.006a.352.352,0,0,1-.095.692Z" transform="translate(-73.385 -45.5)" fill="#fff"/>
    </g>
    <path id="Path_270" data-name="Path 270" d="M394.6,423.949H314.5a7.445,7.445,0,0,1-7.161-7.685V291.6a7.445,7.445,0,0,1,7.161-7.685h80.1a7.445,7.445,0,0,1,7.161,7.685V416.264A7.445,7.445,0,0,1,394.6,423.949Z" transform="translate(-255.355 -267.799)" fill="#e5e5e5"/>
    <path id="Path_271" data-name="Path 271" d="M404.484,427.962H324.1a2.3,2.3,0,0,1-2.207-2.369V300.1a2.3,2.3,0,0,1,2.207-2.369h80.383a2.3,2.3,0,0,1,2.207,2.369V425.593A2.3,2.3,0,0,1,404.484,427.962Z" transform="translate(-265.1 -276.715)" fill="#fff"/>
    <ellipse id="Ellipse_33" data-name="Ellipse 33" cx="0.581" cy="0.624" rx="0.581" ry="0.624" transform="translate(97.509 24.14)" fill="#fff"/>
    <rect id="Rectangle_179" data-name="Rectangle 179" width="63.246" height="45.792" transform="translate(69.447 56.841)" fill="#fff"/>
    <path id="Path_272" data-name="Path 272" d="M423.113,444.247H359.506V398.042h63.606Zm-63.171-.468h62.735V398.51H359.942Z" transform="translate(-290.001 -341.316)" fill="#3f3d56"/>
    <path id="Path_273" data-name="Path 273" d="M376.332,441.062h52.557V408.94H376.332Z" transform="translate(-301.54 -348.467)" fill="#f8c49a"/>
    <path id="Path_277" data-name="Path 277" d="M708.576,631.426l-4.055-1.832-2.781-21.813H664.7l-3.015,21.724-3.627,1.946a.948.948,0,0,0-.453,1.039.876.876,0,0,0,.839.712h49.8a.879.879,0,0,0,.844-.741A.941.941,0,0,0,708.576,631.426Z" transform="translate(-489.806 -476.757)" fill="#e6e6e6"/>
    <path id="Path_278" data-name="Path 278" d="M635.24,558.855H453.291a3.744,3.744,0,0,1-3.6-3.868V527.451H638.836v27.535a3.744,3.744,0,0,1-3.6,3.868Z" transform="translate(-350.648 -424.929)" fill="#ccc"/>
    <g id="earrings-svgrepo-com" transform="translate(41.652 58.302)">
      <g id="Group_33" data-name="Group 33" transform="translate(54.865 5)">
        <g id="Group_32" data-name="Group 32">
          <path id="Path_306" data-name="Path 306" d="M254.487,16.436l-1.227-2.125a.456.456,0,1,0-.79.456l.919,1.592h-2.8l-1.077-1.867a.458.458,0,0,0-.039-.056l1.4-2.432.787,1.363a.456.456,0,1,0,.79-.456l-.927-1.605a.762.762,0,0,0-.658-.38H250v-2.7a.761.761,0,0,0-.76-.76h-.878V5.65a2.843,2.843,0,1,0-3.3-2.807.456.456,0,1,0,.913,0,1.93,1.93,0,1,1,1.93,1.931.456.456,0,0,0-.456.456V7.466h-.878a.761.761,0,0,0-.76.76v2.7h-.866a.762.762,0,0,0-.658.38l-2.961,5.13a.762.762,0,0,0,0,.76l2.961,5.13a.762.762,0,0,0,.658.38h5.923a.762.762,0,0,0,.658-.38l2.961-5.13A.762.762,0,0,0,254.487,16.436Zm-4.689.38-.946,1.638H246.96l-.946-1.638.946-1.638h1.892Zm-3.074-8.437h2.365v.908h-2.365Zm0,1.821h2.365v.726h-2.365Zm3.194,1.639-1.4,2.426h-1.232l-1.4-2.426Zm-4.986.175,1.4,2.43a.446.446,0,0,0-.033.049l-1.077,1.867h-2.8Zm0,9.6-2.509-4.346h2.8l1.077,1.867a.458.458,0,0,0,.033.049Zm.953.175,1.4-2.426h1.232l1.4,2.426Zm4.991-.166-1.4-2.432a.464.464,0,0,0,.039-.056l1.077-1.867h2.8Z" transform="translate(-241.224)" fill="#fff"/>
        </g>
      </g>
      <g id="Group_35" data-name="Group 35" transform="translate(45.061 7.103)">
        <g id="Group_34" data-name="Group 34">
          <path id="Path_307" data-name="Path 307" d="M110.011,122a2.846,2.846,0,0,0-2.843,2.843.456.456,0,0,0,.913,0,1.93,1.93,0,1,1,3.725.714.456.456,0,1,0,.848.337A2.845,2.845,0,0,0,110.011,122Z" transform="translate(-107.168 -122.005)" fill="#fff"/>
        </g>
      </g>
      <g id="Group_37" data-name="Group 37" transform="translate(41.222 11.554)">
        <g id="Group_36" data-name="Group 36">
          <path id="Path_308" data-name="Path 308" d="M54.484,210.448l-2.961-5.13a.762.762,0,0,0-.658-.38H50v-2.7a.761.761,0,0,0-.76-.76H48.36v-1.817a2.835,2.835,0,0,0,.972-.348.456.456,0,1,0-.459-.789,1.928,1.928,0,0,1-.969.26.456.456,0,0,0-.456.456v2.236h-.878a.761.761,0,0,0-.76.76v2.7h-.867a.762.762,0,0,0-.658.38l-2.961,5.13a.762.762,0,0,0,0,.76l2.961,5.13a.762.762,0,0,0,.658.38h5.923a.762.762,0,0,0,.658-.38l.527-.913a.456.456,0,0,0-.79-.456l-.387.67-1.4-2.432a.458.458,0,0,0,.039-.056l1.077-1.867h2.8l-1.319,2.285a.456.456,0,0,0,.79.456l1.627-2.818A.762.762,0,0,0,54.484,210.448Zm-7.763-8.057h2.365v.908H46.721Zm0,1.821h2.365v.726H46.721Zm3.194,1.639-1.4,2.426H47.283l-1.4-2.426Zm-4.986.175,1.4,2.43a.451.451,0,0,0-.033.049l-1.077,1.866h-2.8Zm0,9.6-2.509-4.346h2.8L46.3,213.15a.458.458,0,0,0,.033.049Zm4.986.175H45.882l1.4-2.426h1.232Zm.67-5.433-.015-.026a.456.456,0,1,0-.79.456l.015.026-.946,1.638H46.958l-.946-1.638.946-1.638H48.85l.158.274a.456.456,0,0,0,.79-.456l-.29-.5a.452.452,0,0,0-.039-.056l1.4-2.432,2.514,4.354Z" transform="translate(-41.222 -198.464)" fill="#fff"/>
        </g>
      </g>
    </g>
    <path id="Path_279" data-name="Path 279" d="M638.69,341.409h-189.5V223.591a4.518,4.518,0,0,1,4.346-4.663H634.345a4.518,4.518,0,0,1,4.346,4.663Z" transform="translate(-350.312 -225.872)" fill="#e5e5e5"/>
    <path id="Path_280" data-name="Path 280" d="M643.5,348.407H476.643a3.483,3.483,0,0,1-3.35-3.6V246.624a3.483,3.483,0,0,1,3.35-3.6H643.5a3.483,3.483,0,0,1,3.35,3.6v98.188A3.483,3.483,0,0,1,643.5,348.407Z" transform="translate(-366.445 -241.422)" fill="#fff"/>
    <path id="Path_281" data-name="Path 281" d="M443.189,679.416H138.83a.44.44,0,0,1-.428-.338.482.482,0,0,1,.074-.394.415.415,0,0,1,.336-.178H443.155a.454.454,0,0,1,.449.356.481.481,0,0,1-.083.384A.414.414,0,0,1,443.189,679.416Z" transform="translate(-142.262 -522.388)" fill="#3f3d56"/>
    <path id="Path_282" data-name="Path 282" d="M854.412,329.051c.947-3.238,3.1-6.207,6.077-7.3s8.171-.071,9.575,2.967c2.023,4.379,1.114,9.741.041,14.5-.559-.032-1.124-.057-1.69-.08l-.8-2.865V339.1c-4.42-.147-9.022-.055-13.626.04A25.2,25.2,0,0,1,854.412,329.051Z" transform="translate(-620.921 -305.414)" fill="#2f2e41"/>
    <path id="Path_283" data-name="Path 283" d="M808.473,412.869l-3.718,1.672-7.779-14.6,5.488-2.468Z" transform="translate(-534.367 -265.856)" fill="#9f616a"/>
    <path id="Path_284" data-name="Path 284" d="M951.943,656.416l-11.989,5.392-.064-.163a5.581,5.581,0,0,1,2.711-7.107h0l7.322-3.293Z" transform="translate(-675.379 -505.962)" fill="#2f2e41"/>
    <path id="Path_285" data-name="Path 285" d="M816.742,432.857a3.176,3.176,0,0,1-.4-2.5,2.945,2.945,0,0,1,1.529-1.93l7.992-25.88,5.352,3.064-9.538,24.476a3.108,3.108,0,0,1-1.323,3.737,2.692,2.692,0,0,1-3.614-.97Z" transform="translate(-597.162 -354.789)" fill="#9f616a"/>
    <path id="Path_286" data-name="Path 286" d="M695.848,422.69h-4.031L689.9,406h5.95Z" transform="translate(-466.416 -271.037)" fill="#9f616a"/>
    <path id="Path_287" data-name="Path 287" d="M824.807,669.491h-13v-.177a5.255,5.255,0,0,1,5.059-5.43h7.94Z" transform="translate(-594.347 -513.644)" fill="#2f2e41"/>
    <path id="Path_288" data-name="Path 288" d="M721.227,203.464l.914,2.549-.183,2.549-17.539-2.353.548-2.157,2.01-2.549Z" transform="translate(-475.63 -146.73)" fill="#9f616a"/>
    <ellipse id="Ellipse_35" data-name="Ellipse 35" cx="6.385" cy="6.853" rx="6.385" ry="6.853" transform="translate(233.559 20.091)" fill="#9f616a"/>
    <path id="Path_289" data-name="Path 289" d="M843.39,374.568l3.654-2.353,7.308-.784L860.811,373l-.065,12.744-4.019,9.411-17.173-1.961-.731-2.564s-4.75-6.847.365-10.768Z" transform="translate(-610.217 -335.873)" fill="#6e7ead"/>
    <path id="Path_290" data-name="Path 290" d="M841.443,380.019l-.914-.588s-4.933.98-6.029,4.117-2.192,17.254-2.192,17.254l4.567.582,1.644-11.562Z" transform="translate(-607.356 -340.736)" fill="#6e7ead"/>
    <path id="Path_303" data-name="Path 303" d="M590.962,266.327H427.412a2.217,2.217,0,0,0-2.351,2.046v96.454a2.217,2.217,0,0,0,2.351,2.046h163.55a2.217,2.217,0,0,0,2.351-2.046V268.373A2.217,2.217,0,0,0,590.962,266.327Zm1.679,98.5a1.582,1.582,0,0,1-1.679,1.462H427.412a1.582,1.582,0,0,1-1.679-1.462V268.373a1.582,1.582,0,0,1,1.679-1.461h163.55a1.582,1.582,0,0,1,1.679,1.461Z" transform="translate(-315.488 -262.552)" fill="#3f3d56"/>
    <rect id="Rectangle_181" data-name="Rectangle 181" width="167.635" height="0.616" transform="translate(109.881 12.413)" fill="#3f3d56"/>
    <ellipse id="Ellipse_39" data-name="Ellipse 39" cx="1.848" cy="1.848" rx="1.848" ry="1.848" transform="translate(113.269 6.548)" fill="#3f3d56"/>
    <ellipse id="Ellipse_40" data-name="Ellipse 40" cx="1.848" cy="1.848" rx="1.848" ry="1.848" transform="translate(118.583 6.548)" fill="#3f3d56"/>
    <ellipse id="Ellipse_41" data-name="Ellipse 41" cx="1.848" cy="1.848" rx="1.848" ry="1.848" transform="translate(123.897 6.548)" fill="#3f3d56"/>
    <path id="Path_291" data-name="Path 291" d="M844.982,432.284v4.355s4.75,6.625,2.192,11.722c0,0,5.481,10.98,5.846,14.9l5.115,18.038s12.789,13.725,11.693,23.528l.731,3.137-8.4,3.921-1.827-2.745-14.25-26.273-12.058-23.92-2.192,28.234s1.462,21.96-2.558,24.312l-.365,3.529h-8.529V511.67s-3.163-11.939-1.336-20.958l-.731-38.037s3.289-16.078,7.308-18.823l1.461-3.921Z" transform="translate(-598.471 -371.433)" fill="#2f2e41"/>
    <path id="Path_292" data-name="Path 292" d="M854.658,324.757a7.552,7.552,0,0,1,8.167-.116,8.75,8.75,0,0,1,4.026,7.627c-3.569.176-7.319.222-11.12.23l-.9-2.36-.53,2.362q-1.738,0-3.482,0A8.974,8.974,0,0,1,854.658,324.757Z" transform="translate(-619.102 -306.736)" fill="#2f2e41"/>
    <path id="Path_300" data-name="Path 300" d="M0,0,89.092-1.551,88.046,62.4-1.046,63.954Z" transform="translate(141.234 49.623) rotate(-14.268)" fill="#fff"/>
    <path id="Path_293" data-name="Path 293" d="M698.153,390.7,611.6,414.318l-14.9-62.876,86.555-23.622ZM612.04,413.52l85.369-23.3-14.6-61.6-85.369,23.3Z" transform="translate(-455.836 -302.056)" fill="#3f3d56"/>
    <path id="Path_298" data-name="Path 298" d="M868.652,439.183a2.733,2.733,0,0,1,.432.143l11.147-8.235-.255-3.518,4.9-1.107,1.015,6.18a2.393,2.393,0,0,1-1.184,2.508L870.9,442.463a3.027,3.027,0,0,1-2.084,2.685,2.762,2.762,0,0,1-3.077-1.143,3.26,3.26,0,0,1-.093-3.493,2.782,2.782,0,0,1,3.011-1.329Z" transform="translate(-628.216 -369.327)" fill="#9f616a"/>
    <path id="Path_299" data-name="Path 299" d="M895.308,375.6l2.622-.588s5.781-2.157,6.147,5.686l.731,18.43-5.428.784-2.246-16.078Z" transform="translate(-647.337 -337.883)" fill="#6e7ead"/>
    <path id="Path_301" data-name="Path 301" d="M145.16,46.252l75.028-20.27.306,1.222,12.7,50.781-75.1,21.091Z" transform="translate(2 7.307)" fill="#f8c49a"/>
    <g id="diamond-ring-jewelry-svgrepo-com_1_" data-name="diamond-ring-jewelry-svgrepo-com (1)" transform="translate(-62.875 -2.534) rotate(-14)">
      <g id="ring" transform="translate(211.373 108.601)">
        <g id="Group_38" data-name="Group 38" transform="translate(0)">
          <path id="Path_309" data-name="Path 309" d="M75.569,93.3a13.369,13.369,0,1,0,13.369,13.369A13.383,13.383,0,0,0,75.569,93.3Zm0,25.252a11.883,11.883,0,1,1,11.883-11.883A11.9,11.9,0,0,1,75.569,118.552Z" transform="translate(-57.744 -79.931)" fill="#fff"/>
          <path id="Path_310" data-name="Path 310" d="M55.886,10.764,58.5,5.531c.005-.01.009-.021.013-.032s.015-.033.021-.05.01-.031.014-.047.009-.031.013-.046.006-.033.008-.049,0-.032.006-.048,0-.029,0-.044,0-.036,0-.055,0-.022,0-.033,0-.043-.008-.064c0-.006,0-.011,0-.017a.729.729,0,0,0-.039-.126c0-.011-.008-.023-.014-.034s-.012-.021-.017-.032-.021-.039-.033-.058l-.006-.01L55.485.331A.743.743,0,0,0,54.867,0H42.983a.743.743,0,0,0-.618.331L39.395,4.787l-.006.01c-.012.019-.023.038-.033.058s-.012.021-.017.032-.009.023-.014.035a.726.726,0,0,0-.039.125c0,.006,0,.011,0,.017,0,.021-.006.043-.008.064s0,.022,0,.033,0,.036,0,.055,0,.029,0,.044,0,.032.006.047,0,.033.008.049.008.031.013.046.009.031.015.047.014.033.021.05.008.021.013.032l2.616,5.233A17.651,17.651,0,0,0,31.1,26.738a17.825,17.825,0,1,0,35.65,0A17.651,17.651,0,0,0,55.886,10.764ZM54.408,10.4h-2.8l1.043-2.086L53.84,5.942h2.8ZM51.588,4.456H46.262l2.663-2.663ZM47.9,10.4,45.671,5.942H52.18L51.137,8.027,49.952,10.4Zm6.571-8.913L56.45,4.456H53.689L50.718,1.485h3.751Zm-11.088,0h3.751L44.161,4.456H41.4Zm.629,4.456L45.2,8.312,46.238,10.4h-2.8L41.214,5.942Zm4.915,37.136a16.34,16.34,0,0,1-16.34-16.34c0-6.549,4.244-12.3,10.541-14.854h11.6c6.3,2.55,10.541,8.305,10.541,14.854A16.34,16.34,0,0,1,48.925,43.077Z" transform="translate(-31.1)" fill="#fff"/>
        </g>
      </g>
    </g>
  </g>
</svg>
