<svg xmlns="http://www.w3.org/2000/svg" width="236.849" height="166.646" viewBox="0 0 236.849 166.646">
  <g id="undraw_asset_selection_re_k5fj" transform="translate(0.003 0.153)">
    <path id="Path_302" data-name="Path 302" d="M654.419,266.327H428.311a3.174,3.174,0,0,0-3.25,3.084V414.778a3.174,3.174,0,0,0,3.25,3.084H654.419a3.174,3.174,0,0,0,3.25-3.084V269.411A3.173,3.173,0,0,0,654.419,266.327Zm2.321,148.451a2.265,2.265,0,0,1-2.321,2.2H428.311a2.265,2.265,0,0,1-2.321-2.2V269.411a2.265,2.265,0,0,1,2.321-2.2H654.419a2.265,2.265,0,0,1,2.322,2.2Z" transform="translate(-425.064 -266.481)" fill="#3f3d56"/>
    <rect id="Rectangle_180" data-name="Rectangle 180" width="231.679" height="0.929" transform="translate(0.462 12.865)" fill="#3f3d56"/>
    <ellipse id="Ellipse_36" data-name="Ellipse 36" cx="2.786" cy="2.786" rx="2.786" ry="2.786" transform="translate(5.569 4.025)" fill="#3f3d56"/>
    <ellipse id="Ellipse_37" data-name="Ellipse 37" cx="2.786" cy="2.786" rx="2.786" ry="2.786" transform="translate(13.578 4.025)" fill="#3f3d56"/>
    <ellipse id="Ellipse_38" data-name="Ellipse 38" cx="2.786" cy="2.786" rx="2.786" ry="2.786" transform="translate(21.587 4.025)" fill="#3f3d56"/>
    <path id="Path_130" data-name="Path 130" d="M868.219,418.519a78.514,78.514,0,0,1-3.668,21.7c-.051.163-.1.324-.158.487H850.706c.015-.146.029-.309.044-.487.912-10.492,6.174-74.348-.117-85.268C851.183,355.841,869.28,385.182,868.219,418.519Z" transform="translate(-641.06 -300.601)" fill="#f0f0f0"/>
    <path id="Path_131" data-name="Path 131" d="M877.578,508.377c-.114.163-.234.326-.355.487H866.955c.078-.139.168-.3.272-.487,1.7-3.062,6.717-12.215,11.378-21.7,5.009-10.2,9.6-20.782,9.217-24.612C887.941,462.924,891.407,489.262,877.578,508.377Z" transform="translate(-651.446 -369.776)" fill="#f0f0f0"/>
    <path id="Path_132" data-name="Path 132" d="M318.518,240.955c-6.291,10.92-1.029,74.776-.117,85.268.015.178.029.341.044.487H304.758c-.054-.163-.107-.324-.158-.487a78.514,78.514,0,0,1-3.668-21.7C299.871,271.182,317.968,241.841,318.518,240.955Z" transform="translate(-291.244 -220.262)" fill="#f0f0f0"/>
    <path id="Path_133" data-name="Path 133" d="M274.844,348.06c-.387,3.831,4.208,14.415,9.216,24.612,4.661,9.489,9.681,18.642,11.378,21.7.1.185.195.348.273.487H285.443c-.122-.161-.241-.324-.355-.487C271.259,375.262,274.725,348.924,274.844,348.06Z" transform="translate(-274.373 -293.619)" fill="#f0f0f0"/>
    <path id="Path_138" data-name="Path 138" d="M732.388,383.786H645.833a2.548,2.548,0,0,1-2.546-2.546V268.5a2.548,2.548,0,0,1,2.546-2.546h86.555a2.548,2.548,0,0,1,2.546,2.546v112.74a2.549,2.549,0,0,1-2.546,2.546Zm-86.555-117.1a1.82,1.82,0,0,0-1.818,1.818v112.74a1.821,1.821,0,0,0,1.818,1.818h86.555a1.821,1.821,0,0,0,1.818-1.818V268.5a1.82,1.82,0,0,0-1.818-1.818Z" transform="translate(-509.122 -242.017)" fill="#e6e6e6"/>
    <path id="Path_139" data-name="Path 139" d="M746.777,342.576H710.046a2.549,2.549,0,0,1-2.546-2.546V311.3a2.549,2.549,0,0,1,2.546-2.546h36.731a2.549,2.549,0,0,1,2.546,2.546V340.03A2.549,2.549,0,0,1,746.777,342.576Z" transform="translate(-549.981 -266.995)" fill="#e6e6e6"/>
    <path id="Path_140" data-name="Path 140" d="M746.565,474.777H709.833a2.549,2.549,0,0,1-2.546-2.546V443.5a2.549,2.549,0,0,1,2.546-2.546h36.731a2.549,2.549,0,0,1,2.546,2.546v28.731A2.549,2.549,0,0,1,746.565,474.777Zm-36.731-33.095a1.821,1.821,0,0,0-1.818,1.818v28.731a1.821,1.821,0,0,0,1.818,1.818h36.731a1.821,1.821,0,0,0,1.818-1.818V443.5a1.82,1.82,0,0,0-1.818-1.818Z" transform="translate(-549.846 -354.925)" fill="#3f3d56"/>
    <path id="Path_141" data-name="Path 141" d="M774.565,496.777H737.833a2.549,2.549,0,0,1-2.546-2.546V465.5a2.548,2.548,0,0,1,2.546-2.546h36.731a2.549,2.549,0,0,1,2.546,2.546v28.73A2.549,2.549,0,0,1,774.565,496.777Z" transform="translate(-567.663 -369.558)" fill="#f8c49a"/>
    <path id="Path_145" data-name="Path 145" d="M391.022,530.686H304.467a2.549,2.549,0,0,1-2.546-2.546V499.41a2.549,2.549,0,0,1,2.546-2.546h86.555a2.549,2.549,0,0,1,2.546,2.546v28.731A2.549,2.549,0,0,1,391.022,530.686Z" transform="translate(-291.903 -392.112)" fill="#e6e6e6"/>
    <path id="Path_146" data-name="Path 146" d="M390.022,345.146H303.467a2.549,2.549,0,0,1-2.546-2.546V272.41a2.549,2.549,0,0,1,2.546-2.546h86.555a2.549,2.549,0,0,1,2.546,2.546V342.6a2.549,2.549,0,0,1-2.546,2.546Zm-86.555-74.554a1.821,1.821,0,0,0-1.818,1.818V342.6a1.821,1.821,0,0,0,1.818,1.818h86.555a1.82,1.82,0,0,0,1.818-1.818V272.41a1.821,1.821,0,0,0-1.818-1.818Z" transform="translate(-291.266 -242.16)" fill="#3f3d56"/>
    <path id="Path_147" data-name="Path 147" d="M429.022,380.146H342.467a2.549,2.549,0,0,1-2.546-2.546V307.41a2.548,2.548,0,0,1,2.546-2.546h86.555a2.549,2.549,0,0,1,2.546,2.546V377.6a2.549,2.549,0,0,1-2.546,2.546Z" transform="translate(-316.083 -265.86)" fill="#f8c49a"/>
    <path id="Path_151" data-name="Path 151" d="M633.334,472.993a3.492,3.492,0,0,1,2.333-.371l12.5-11.678-2.074-10.413,8.2.445.734,12.639L638.495,476.49a3.5,3.5,0,1,1-5.161-3.5Z" transform="translate(-501.917 -393.751)" fill="#ffb8b8"/>
    <path id="Path_152" data-name="Path 152" d="M319.641,491.779h-5.372l-2.556-20.721h7.929Z" transform="translate(-202.023 -331.097)" fill="#ffb6b6"/>
    <path id="Path_153" data-name="Path 153" d="M585.1,705.359H567.774v-.219a6.742,6.742,0,0,1,6.742-6.742H585.1Z" transform="translate(-466.108 -539.471)" fill="#2f2e41"/>
    <path id="Path_154" data-name="Path 154" d="M411.641,491.779h-5.372l-2.555-20.721h7.928Z" transform="translate(-253.71 -331.097)" fill="#ffb6b6"/>
    <path id="Path_155" data-name="Path 155" d="M677.1,705.359H659.773v-.219a6.742,6.742,0,0,1,6.742-6.742H677.1Z" transform="translate(-517.795 -539.471)" fill="#2f2e41"/>
    <path id="Path_156" data-name="Path 156" d="M663.8,434.407a4.378,4.378,0,0,0-5.591-1.092h0a4.378,4.378,0,0,0-1.961,5.292l2.634,7.317,10.79-4.1Z" transform="translate(-515.671 -382.668)" fill="#6e7ead"/>
    <path id="Path_157" data-name="Path 157" d="M620.34,509.073a8.914,8.914,0,0,0-1.575-.945l-19.637,3.021.432,12.3c-9.5,17.927-15.778,38.379-19.206,61.069l12.3,2.805c5.5-21.322,11.755-40.455,19.637-54.811l8.309,54.293,14.134-.345C632.872,554.544,631.436,517.336,620.34,509.073Z" transform="translate(-473.176 -432.575)" fill="#2f2e41"/>
    <ellipse id="Ellipse_22" data-name="Ellipse 22" cx="7.654" cy="7.654" rx="7.654" ry="7.654" transform="translate(124.853 34.429)" fill="#ffb8b8"/>
    <path id="Path_158" data-name="Path 158" d="M645.795,443.349a9.938,9.938,0,0,0-5.476-10.569h0l-8.632.432h0a9.542,9.542,0,0,0-6.364,5.446c-3.741,8.757-4.274,19.952-2.7,32.75l20.445-4.863C640.265,460.231,642.519,451.985,645.795,443.349Z" transform="translate(-496.456 -383.559)" fill="#6e7ead"/>
    <path id="Path_159" data-name="Path 159" d="M616.5,395.394h0a7.887,7.887,0,0,1,7.887-7.887h.452a8.066,8.066,0,0,1,5.025-1.753h0a8.107,8.107,0,0,1,8.106,8.106v10.3a62.722,62.722,0,0,0-17.527,2.629c1.6-4.433,2.664-8.509,1.938-11.393Z" transform="translate(-493.483 -355.05)" fill="#2f2e41"/>
    <path id="Path_160" data-name="Path 160" d="M575.005,471.357a3.492,3.492,0,0,1,2.224.8l16.571-4.236,3.185-10.129,6.982,4.333-5.43,11.436L577.851,476.9a3.5,3.5,0,1,1-2.846-5.547Z" transform="translate(-468.201 -397.743)" fill="#ffb8b8"/>
    <path id="Path_161" data-name="Path 161" d="M637.521,443.562a4.378,4.378,0,0,0-2.311-5.207h0a4.378,4.378,0,0,0-5.46,1.427l-4.485,6.353,9.544,6.49Z" transform="translate(-498.407 -385.781)" fill="#6e7ead"/>
    <path id="Path_162" data-name="Path 162" d="M594.3,714.43H505.457a.433.433,0,0,1,0-.866H594.3a.433.433,0,1,1,0,.866Z" transform="translate(-421.142 -547.937)" fill="#3f3d56"/>
    <g id="jewelry-set-svgrepo-com" transform="translate(168.379 96.222)">
      <path id="Path_313" data-name="Path 313" d="M103.988,62.18a1.42,1.42,0,0,0-.318-.9,1.421,1.421,0,0,0,.008-2.073,1.424,1.424,0,0,0-.28-2.07,1.421,1.421,0,0,0-.574-2.011,1.426,1.426,0,0,0-.862-1.9,1.419,1.419,0,0,0-1.139-1.761c0-.045.007-.091.007-.137A1.428,1.428,0,0,0,99.422,49.9a1.424,1.424,0,0,0-2.25-1.075,11.355,11.355,0,0,0-5.659-1.793v-.079a.456.456,0,1,0-.912,0v.079a11.355,11.355,0,0,0-5.659,1.793,1.423,1.423,0,0,0-2.25,1.075,1.429,1.429,0,0,0-1.408,1.426c0,.046,0,.092.007.137a1.419,1.419,0,0,0-1.139,1.761,1.425,1.425,0,0,0-.862,1.9,1.421,1.421,0,0,0-.574,2.011,1.424,1.424,0,0,0-.28,2.07,1.421,1.421,0,0,0,.008,2.073,1.422,1.422,0,0,0,.241,2.026,1.746,1.746,0,0,0,.761,2.714,2.073,2.073,0,0,0,1.738,3.094,2.36,2.36,0,0,0,3.044,2.912,2.57,2.57,0,0,0,4.335,1.859,2.683,2.683,0,0,0,4.987,0,2.57,2.57,0,0,0,4.335-1.859,2.36,2.36,0,0,0,3.044-2.912,2.073,2.073,0,0,0,1.738-3.094,1.746,1.746,0,0,0,.761-2.714A1.425,1.425,0,0,0,103.988,62.18Zm-1.427.516a.521.521,0,0,1-.1-.01c-.019,0-.037-.011-.056-.015a.516.516,0,1,1,.157.024ZM100.3,64.387a1.739,1.739,0,0,0,.12.631,2.074,2.074,0,0,0-1.592,2.431c-.052,0-.1-.006-.157-.006a2.364,2.364,0,0,0-2.355,2.206A2.572,2.572,0,0,0,92.952,71a2.68,2.68,0,0,0-3.79,0,2.572,2.572,0,0,0-3.364-1.35,2.364,2.364,0,0,0-2.355-2.206c-.053,0-.1,0-.157.006a2.074,2.074,0,0,0-1.591-2.431,1.742,1.742,0,0,0-.865-2.2,1.418,1.418,0,0,0-.3-1.675,1.423,1.423,0,0,0-.007-1.8,1.418,1.418,0,0,0,.236-1.772,1.424,1.424,0,0,0,.494-1.716,1.416,1.416,0,0,0,.736-1.627,1.429,1.429,0,0,0,.973-1.352c0-.046,0-.092-.007-.137a1.428,1.428,0,0,0,1.181-1.319,1.427,1.427,0,0,0,1.345-1.849A10.446,10.446,0,0,1,90.6,47.948a.453.453,0,0,0,.9,0,10.443,10.443,0,0,1,5.127,1.619,1.427,1.427,0,0,0,1.344,1.849,1.428,1.428,0,0,0,1.181,1.319c0,.045-.007.091-.007.137a1.429,1.429,0,0,0,.973,1.352,1.416,1.416,0,0,0,.736,1.627,1.424,1.424,0,0,0,.494,1.716,1.418,1.418,0,0,0,.236,1.772,1.423,1.423,0,0,0-.007,1.8,1.417,1.417,0,0,0-.3,1.675A1.752,1.752,0,0,0,100.3,64.387Zm-20.646-1.7a.516.516,0,1,1,.056-.014Zm.8-6.284a.516.516,0,1,1-.516-.516A.516.516,0,0,1,80.45,56.4Zm-.912,1.388a.516.516,0,1,1-.516.516A.516.516,0,0,1,79.538,57.791Zm-.12,1.938a.516.516,0,1,1-.516.516A.516.516,0,0,1,79.418,59.728ZM102.7,60.76a.516.516,0,1,1,.516-.516A.516.516,0,0,1,102.7,60.76Zm-.636-2.454a.516.516,0,1,1,.516.516A.516.516,0,0,1,102.06,58.306Zm.12-1.388a.516.516,0,1,1,.516-.516A.516.516,0,0,1,102.179,56.919Zm-.671-1.824a.516.516,0,1,1,.516-.516A.516.516,0,0,1,101.508,55.095Zm-.411-2.223a.516.516,0,1,1-.516-.516A.516.516,0,0,1,101.1,52.871Zm-1.179-1.542a.516.516,0,1,1-.516-.516A.516.516,0,0,1,99.919,51.329Zm-1.4-1.34A.516.516,0,1,1,98,49.473.516.516,0,0,1,98.515,49.989Zm-14.4-.516a.516.516,0,1,1-.516.516A.516.516,0,0,1,84.115,49.473Zm-1.4,1.34a.516.516,0,1,1-.516.516A.516.516,0,0,1,82.711,50.813Zm-1.179,1.543a.516.516,0,1,1-.516.516A.516.516,0,0,1,81.532,52.356Zm-.926,1.708a.516.516,0,1,1-.516.516A.516.516,0,0,1,80.606,54.063Zm-.768,9.516c.02,0,.04-.01.06-.015a.839.839,0,0,1,.56,1.564c-.034.014-.068.029-.1.045a.839.839,0,1,1-.519-1.594Zm.25,3.466A1.164,1.164,0,0,1,80.733,66c.026-.011.05-.023.075-.035a1.163,1.163,0,1,1-.722,1.076ZM81.994,69.8a1.449,1.449,0,1,1,1.449,1.449A1.451,1.451,0,0,1,81.994,69.8ZM86.8,73.679a1.661,1.661,0,1,1,1.661-1.661A1.663,1.663,0,0,1,86.8,73.679Zm4.257.991A1.772,1.772,0,1,1,92.829,72.9,1.774,1.774,0,0,1,91.057,74.67Zm4.257-.991a1.661,1.661,0,1,1,1.661-1.661A1.663,1.663,0,0,1,95.314,73.679Zm3.357-2.426A1.449,1.449,0,1,1,100.12,69.8,1.451,1.451,0,0,1,98.671,71.253Zm2.192-3.045a1.163,1.163,0,1,1,.442-2.239c.025.012.049.024.075.035a1.162,1.162,0,0,1-.517,2.2Zm1.188-2.981a.835.835,0,0,1-.294-.054c-.033-.016-.066-.031-.1-.045a.839.839,0,0,1,.56-1.564l.06.015a.839.839,0,0,1-.225,1.648Z" transform="translate(-70.385 -46.5)" fill="#fff"/>
    </g>
    <path id="AR_button_icon" data-name="AR button icon" d="M25.267,44.94,12.721,37.584a3.114,3.114,0,0,1-1.226-1.255,3.568,3.568,0,0,1-.428-1.711V19.963a3.568,3.568,0,0,1,.428-1.711A3.114,3.114,0,0,1,12.721,17l12.6-7.47a3.653,3.653,0,0,1,3.536,0L41.462,17a3.114,3.114,0,0,1,1.226,1.255,3.568,3.568,0,0,1,.428,1.711V34.619a3.392,3.392,0,0,1-.456,1.711A3.313,3.313,0,0,1,41.4,37.584L28.688,44.94a3.436,3.436,0,0,1-3.422,0Zm.114-3.935V28.232L14.546,22.016V34.5Zm3.422,0,10.892-6.5V22.016L28.8,28.232ZM2,12.778V8.387A6.166,6.166,0,0,1,3.853,3.853,6.166,6.166,0,0,1,8.387,2h4.391V5.422H8.387A2.922,2.922,0,0,0,5.422,8.387v4.391Zm6.387,39.4a6.166,6.166,0,0,1-4.534-1.853A6.166,6.166,0,0,1,2,45.8V41.4H5.422V45.8a2.922,2.922,0,0,0,2.965,2.965h4.391v3.422ZM41.4,51.955V48.533H45.8a2.922,2.922,0,0,0,2.965-2.965V41.177h3.422v4.391A6.329,6.329,0,0,1,45.8,51.955Zm7.356-39.177V8.387A2.922,2.922,0,0,0,45.8,5.422H41.4V2H45.8a6.166,6.166,0,0,1,4.534,1.853,6.166,6.166,0,0,1,1.853,4.534v4.391ZM27.091,25.152,37.926,18.88,27.091,12.664,16.256,18.88ZM27.091,26.578ZM27.091,25.152ZM28.8,28.232ZM25.381,28.232Z" transform="translate(44.25 49.493)" fill="#fff"/>
  </g>
</svg>
